<?xml version="1.0" encoding="UTF-8" standalone="no"?>
<!DOCTYPE svg PUBLIC "-//W3C//DTD SVG 1.1//EN" "http://www.w3.org/Graphics/SVG/1.1/DTD/svg11.dtd">
<svg width="100%" height="100%" viewBox="0 0 1991 1902" version="1.1" xmlns="http://www.w3.org/2000/svg" xmlns:xlink="http://www.w3.org/1999/xlink" xml:space="preserve" xmlns:serif="http://www.serif.com/" style="fill-rule:evenodd;clip-rule:evenodd;stroke-linejoin:round;stroke-miterlimit:2;">
    <g transform="matrix(1,0,0,1,-13162,-12979)">
        <g id="CloudyRain" transform="matrix(0.937353,0,0,1.66153,1032.4,7458.41)">
            <rect x="12941" y="3323" width="2123" height="1144.32" style="fill:none;"/>
            <g transform="matrix(2.01037,0,0,1.13415,12791.3,-12.6867)">
                <g id="Cloudy-day" serif:id="Cloudy day">
                    <g>
                        <path d="M543.758,3168.02C586.953,3095.57 666.099,3047 756.5,3047C835.891,3047 906.602,3084.46 951.897,3142.65C954.369,3142.22 956.909,3142 959.5,3142C984.06,3142 1004,3161.94 1004,3186.5C1004,3198.41 999.31,3209.24 991.678,3217.23C996.121,3230.74 999.431,3244.77 1001.5,3259.19C1003.48,3259.07 1005.48,3259 1007.5,3259C1058.55,3259 1100,3300.45 1100,3351.5C1100,3381.68 1085.51,3408.51 1063.12,3425.39C1064.03,3431.46 1064.5,3437.68 1064.5,3444C1064.5,3513.13 1008.38,3569.25 939.25,3569.25C903.297,3569.25 870.862,3554.07 848.016,3529.78C823.691,3565.65 782.579,3589.25 736,3589.25C680.112,3589.25 632.096,3555.28 611.497,3506.89C586.653,3551.1 539.291,3581 485,3581C432.174,3581 385.908,3552.69 360.56,3510.43C336.233,3530.17 305.237,3542 271.5,3542C215.747,3542 167.482,3509.69 144.426,3462.78C122.288,3460.59 105,3442.71 105,3421C105,3403.89 115.735,3389.16 131.122,3382.62C138.474,3324.45 181.178,3277.25 237.004,3263.24C237.001,3263.08 237,3262.91 237,3262.75C237,3245.23 250.667,3231 267.5,3231C276.503,3231 284.599,3235.07 290.183,3241.53C319.548,3182.56 380.45,3142 450.75,3142C484.792,3142 516.63,3151.51 543.758,3168.02Z" style="fill:rgb(109,110,112);"/>
                        <path d="M543.758,3168.02C586.953,3095.57 666.099,3047 756.5,3047C835.891,3047 906.602,3084.46 951.897,3142.65C954.369,3142.22 956.909,3142 959.5,3142C984.06,3142 1004,3161.94 1004,3186.5C1004,3198.41 999.31,3209.24 991.678,3217.23C996.121,3230.74 999.431,3244.77 1001.5,3259.19C1003.48,3259.07 1005.48,3259 1007.5,3259C1058.55,3259 1100,3300.45 1100,3351.5C1100,3381.68 1085.51,3408.51 1063.12,3425.39C1064.03,3431.46 1064.5,3437.68 1064.5,3444C1064.5,3513.13 1008.38,3569.25 939.25,3569.25C903.297,3569.25 870.862,3554.07 848.016,3529.78C823.691,3565.65 782.579,3589.25 736,3589.25C680.112,3589.25 632.096,3555.28 611.497,3506.89C586.653,3551.1 539.291,3581 485,3581C432.174,3581 385.908,3552.69 360.56,3510.43C336.233,3530.17 305.237,3542 271.5,3542C215.747,3542 167.482,3509.69 144.426,3462.78C122.288,3460.59 105,3442.71 105,3421C105,3403.89 115.735,3389.16 131.122,3382.62C138.474,3324.45 181.178,3277.25 237.004,3263.24C237.001,3263.08 237,3262.91 237,3262.75C237,3245.23 250.667,3231 267.5,3231C276.503,3231 284.599,3235.07 290.183,3241.53C319.548,3182.56 380.45,3142 450.75,3142C484.792,3142 516.63,3151.51 543.758,3168.02ZM539.206,3175.5L551.279,3172.51C592.947,3102.62 669.293,3055.76 756.5,3055.76C833.085,3055.76 901.294,3091.9 944.988,3148.03L953.385,3151.28C955.373,3150.93 957.416,3150.76 959.5,3150.76C979.228,3150.76 995.244,3166.77 995.244,3186.5C995.244,3196.07 991.476,3204.76 985.346,3211.18L983.36,3219.96C987.645,3232.99 990.837,3246.52 992.828,3260.43L1002.06,3267.93C1003.86,3267.82 1005.67,3267.76 1007.5,3267.76C1053.72,3267.76 1091.24,3305.28 1091.24,3351.5C1091.24,3378.83 1078.12,3403.11 1057.85,3418.4L1054.46,3426.68C1055.31,3432.33 1055.74,3438.11 1055.74,3444C1055.74,3508.3 1003.55,3560.49 939.25,3560.49C905.81,3560.49 875.643,3546.37 854.394,3523.78L840.769,3524.86C818.017,3558.42 779.567,3580.49 736,3580.49C683.728,3580.49 638.82,3548.72 619.553,3503.46L603.863,3502.6C580.518,3544.14 536.016,3572.24 485,3572.24C435.36,3572.24 391.888,3545.64 368.069,3505.93L355.043,3503.63C332.223,3522.14 303.147,3533.24 271.5,3533.24C219.194,3533.24 173.915,3502.92 152.284,3458.91L145.287,3454.06C127.679,3452.32 113.756,3438.26 113.756,3421C113.756,3407.45 122.364,3395.86 134.55,3390.67L139.808,3383.72C146.705,3329.16 186.767,3284.88 239.135,3271.74L245.759,3263.11C245.757,3262.99 245.756,3262.87 245.756,3262.75C245.756,3250.15 255.4,3239.76 267.5,3239.76C273.879,3239.76 279.6,3242.68 283.557,3247.26L298.022,3245.44C325.953,3189.34 383.88,3150.76 450.75,3150.76C483.126,3150.76 513.406,3159.8 539.206,3175.5Z" style="fill:rgb(248,247,242);"/>
                    </g>
                </g>
            </g>
            <g transform="matrix(1.06683,0,0,0.601855,-1106.41,325.246)">
                <path d="M13436,6181.99C13436,6181.99 13373,6301.7 13373,6353C13373,6387.77 13401.2,6416 13436,6416C13470.8,6416 13499,6387.77 13499,6353C13499,6301.7 13436,6181.99 13436,6181.99Z" style="fill:rgb(76,177,252);"/>
                <path d="M13436,6181.99C13436,6181.99 13373,6301.7 13373,6353C13373,6387.77 13401.2,6416 13436,6416C13470.8,6416 13499,6387.77 13499,6353C13499,6301.7 13436,6181.99 13436,6181.99ZM13436,6219C13444.9,6237.67 13456.4,6262.97 13465.8,6287.98C13475.1,6312.45 13482.5,6336.52 13482.5,6353C13482.5,6365.83 13477.3,6377.45 13468.9,6385.87C13460.5,6394.29 13448.8,6399.5 13436,6399.5C13423.2,6399.5 13411.5,6394.29 13403.1,6385.87C13394.7,6377.45 13389.5,6365.83 13389.5,6353C13389.5,6336.52 13396.9,6312.45 13406.2,6287.98C13415.6,6262.97 13427.1,6237.67 13436,6219Z" style="fill:rgb(248,247,242);"/>
            </g>
            <g transform="matrix(1.06683,0,0,0.601855,405.087,344.67)">
                <path d="M13436,6181.99C13436,6181.99 13373,6301.7 13373,6353C13373,6387.77 13401.2,6416 13436,6416C13470.8,6416 13499,6387.77 13499,6353C13499,6301.7 13436,6181.99 13436,6181.99Z" style="fill:rgb(76,177,252);"/>
                <path d="M13436,6181.99C13436,6181.99 13373,6301.7 13373,6353C13373,6387.77 13401.2,6416 13436,6416C13470.8,6416 13499,6387.77 13499,6353C13499,6301.7 13436,6181.99 13436,6181.99ZM13436,6219C13444.9,6237.67 13456.4,6262.97 13465.8,6287.98C13475.1,6312.45 13482.5,6336.52 13482.5,6353C13482.5,6365.83 13477.3,6377.45 13468.9,6385.87C13460.5,6394.29 13448.8,6399.5 13436,6399.5C13423.2,6399.5 13411.5,6394.29 13403.1,6385.87C13394.7,6377.45 13389.5,6365.83 13389.5,6353C13389.5,6336.52 13396.9,6312.45 13406.2,6287.98C13415.6,6262.97 13427.1,6237.67 13436,6219Z" style="fill:rgb(248,247,242);"/>
            </g>
            <g transform="matrix(1.06683,0,0,0.601855,184.731,445.675)">
                <path d="M13436,6181.99C13436,6181.99 13373,6301.7 13373,6353C13373,6387.77 13401.2,6416 13436,6416C13470.8,6416 13499,6387.77 13499,6353C13499,6301.7 13436,6181.99 13436,6181.99Z" style="fill:rgb(76,177,252);"/>
                <path d="M13436,6181.99C13436,6181.99 13373,6301.7 13373,6353C13373,6387.77 13401.2,6416 13436,6416C13470.8,6416 13499,6387.77 13499,6353C13499,6301.7 13436,6181.99 13436,6181.99ZM13436,6219C13444.9,6237.67 13456.4,6262.97 13465.8,6287.98C13475.1,6312.45 13482.5,6336.52 13482.5,6353C13482.5,6365.83 13477.3,6377.45 13468.9,6385.87C13460.5,6394.29 13448.8,6399.5 13436,6399.5C13423.2,6399.5 13411.5,6394.29 13403.1,6385.87C13394.7,6377.45 13389.5,6365.83 13389.5,6353C13389.5,6336.52 13396.9,6312.45 13406.2,6287.98C13415.6,6262.97 13427.1,6237.67 13436,6219Z" style="fill:rgb(248,247,242);"/>
            </g>
            <g transform="matrix(1.06683,0,0,0.601855,-915.91,466.083)">
                <path d="M13436,6181.99C13436,6181.99 13373,6301.7 13373,6353C13373,6387.77 13401.2,6416 13436,6416C13470.8,6416 13499,6387.77 13499,6353C13499,6301.7 13436,6181.99 13436,6181.99Z" style="fill:rgb(76,177,252);"/>
                <path d="M13436,6181.99C13436,6181.99 13373,6301.7 13373,6353C13373,6387.77 13401.2,6416 13436,6416C13470.8,6416 13499,6387.77 13499,6353C13499,6301.7 13436,6181.99 13436,6181.99ZM13436,6219C13444.9,6237.67 13456.4,6262.97 13465.8,6287.98C13475.1,6312.45 13482.5,6336.52 13482.5,6353C13482.5,6365.83 13477.3,6377.45 13468.9,6385.87C13460.5,6394.29 13448.8,6399.5 13436,6399.5C13423.2,6399.5 13411.5,6394.29 13403.1,6385.87C13394.7,6377.45 13389.5,6365.83 13389.5,6353C13389.5,6336.52 13396.9,6312.45 13406.2,6287.98C13415.6,6262.97 13427.1,6237.67 13436,6219Z" style="fill:rgb(248,247,242);"/>
            </g>
            <g transform="matrix(1.06683,0,0,0.601855,-602.156,395.665)">
                <path d="M13436,6181.99C13436,6181.99 13373,6301.7 13373,6353C13373,6387.77 13401.2,6416 13436,6416C13470.8,6416 13499,6387.77 13499,6353C13499,6301.7 13436,6181.99 13436,6181.99Z" style="fill:rgb(76,177,252);"/>
                <path d="M13436,6181.99C13436,6181.99 13373,6301.7 13373,6353C13373,6387.77 13401.2,6416 13436,6416C13470.8,6416 13499,6387.77 13499,6353C13499,6301.7 13436,6181.99 13436,6181.99ZM13436,6219C13444.9,6237.67 13456.4,6262.97 13465.8,6287.98C13475.1,6312.45 13482.5,6336.52 13482.5,6353C13482.5,6365.83 13477.3,6377.45 13468.9,6385.87C13460.5,6394.29 13448.8,6399.5 13436,6399.5C13423.2,6399.5 13411.5,6394.29 13403.1,6385.87C13394.7,6377.45 13389.5,6365.83 13389.5,6353C13389.5,6336.52 13396.9,6312.45 13406.2,6287.98C13415.6,6262.97 13427.1,6237.67 13436,6219Z" style="fill:rgb(248,247,242);"/>
            </g>
            <g transform="matrix(1.06683,0,0,0.601855,-97.8995,395.665)">
                <path d="M13436,6181.99C13436,6181.99 13373,6301.7 13373,6353C13373,6387.77 13401.2,6416 13436,6416C13470.8,6416 13499,6387.77 13499,6353C13499,6301.7 13436,6181.99 13436,6181.99Z" style="fill:rgb(76,177,252);"/>
                <path d="M13436,6181.99C13436,6181.99 13373,6301.7 13373,6353C13373,6387.77 13401.2,6416 13436,6416C13470.8,6416 13499,6387.77 13499,6353C13499,6301.7 13436,6181.99 13436,6181.99ZM13436,6219C13444.9,6237.67 13456.4,6262.97 13465.8,6287.98C13475.1,6312.45 13482.5,6336.52 13482.5,6353C13482.5,6365.83 13477.3,6377.45 13468.9,6385.87C13460.5,6394.29 13448.8,6399.5 13436,6399.5C13423.2,6399.5 13411.5,6394.29 13403.1,6385.87C13394.7,6377.45 13389.5,6365.83 13389.5,6353C13389.5,6336.52 13396.9,6312.45 13406.2,6287.98C13415.6,6262.97 13427.1,6237.67 13436,6219Z" style="fill:rgb(248,247,242);"/>
            </g>
            <g transform="matrix(1.06683,0,0,0.601855,-350.028,466.083)">
                <path d="M13436,6181.99C13436,6181.99 13373,6301.7 13373,6353C13373,6387.77 13401.2,6416 13436,6416C13470.8,6416 13499,6387.77 13499,6353C13499,6301.7 13436,6181.99 13436,6181.99Z" style="fill:rgb(76,177,252);"/>
                <path d="M13436,6181.99C13436,6181.99 13373,6301.7 13373,6353C13373,6387.77 13401.2,6416 13436,6416C13470.8,6416 13499,6387.77 13499,6353C13499,6301.7 13436,6181.99 13436,6181.99ZM13436,6219C13444.9,6237.67 13456.4,6262.97 13465.8,6287.98C13475.1,6312.45 13482.5,6336.52 13482.5,6353C13482.5,6365.83 13477.3,6377.45 13468.9,6385.87C13460.5,6394.29 13448.8,6399.5 13436,6399.5C13423.2,6399.5 13411.5,6394.29 13403.1,6385.87C13394.7,6377.45 13389.5,6365.83 13389.5,6353C13389.5,6336.52 13396.9,6312.45 13406.2,6287.98C13415.6,6262.97 13427.1,6237.67 13436,6219Z" style="fill:rgb(248,247,242);"/>
            </g>
        </g>
    </g>
</svg>
