<?xml version="1.0" encoding="UTF-8" standalone="no"?>
<!DOCTYPE svg PUBLIC "-//W3C//DTD SVG 1.1//EN" "http://www.w3.org/Graphics/SVG/1.1/DTD/svg11.dtd">
<svg width="100%" height="100%" viewBox="0 0 1991 1902" version="1.1" xmlns="http://www.w3.org/2000/svg" xmlns:xlink="http://www.w3.org/1999/xlink" xml:space="preserve" xmlns:serif="http://www.serif.com/" style="fill-rule:evenodd;clip-rule:evenodd;stroke-linecap:round;stroke-miterlimit:1;">
    <g transform="matrix(1,0,0,1,-15328,-12970)">
        <g id="CloudySnow" transform="matrix(0.937353,0,0,1.66153,3197.95,7448.73)">
            <rect x="12941" y="3323" width="2123" height="1144.32" style="fill:none;"/>
            <g transform="matrix(2.01037,0,0,1.13415,12791.3,-12.6867)">
                <g id="Cloudy-day" serif:id="Cloudy day">
                    <g>
                        <path d="M543.758,3168.02C586.953,3095.57 666.099,3047 756.5,3047C835.891,3047 906.602,3084.46 951.897,3142.65C954.369,3142.22 956.909,3142 959.5,3142C984.06,3142 1004,3161.94 1004,3186.5C1004,3198.41 999.31,3209.24 991.678,3217.23C996.121,3230.74 999.431,3244.77 1001.5,3259.19C1003.48,3259.07 1005.48,3259 1007.5,3259C1058.55,3259 1100,3300.45 1100,3351.5C1100,3381.68 1085.51,3408.51 1063.12,3425.39C1064.03,3431.46 1064.5,3437.68 1064.5,3444C1064.5,3513.13 1008.38,3569.25 939.25,3569.25C903.297,3569.25 870.862,3554.07 848.016,3529.78C823.691,3565.65 782.579,3589.25 736,3589.25C680.112,3589.25 632.096,3555.28 611.497,3506.89C586.653,3551.1 539.291,3581 485,3581C432.174,3581 385.908,3552.69 360.56,3510.43C336.233,3530.17 305.237,3542 271.5,3542C215.747,3542 167.482,3509.69 144.426,3462.78C122.288,3460.59 105,3442.71 105,3421C105,3403.89 115.735,3389.16 131.122,3382.62C138.474,3324.45 181.178,3277.25 237.004,3263.24C237.001,3263.08 237,3262.91 237,3262.75C237,3245.23 250.667,3231 267.5,3231C276.503,3231 284.599,3235.07 290.183,3241.53C319.548,3182.56 380.45,3142 450.75,3142C484.792,3142 516.63,3151.51 543.758,3168.02Z" style="fill:rgb(109,110,112);"/>
                        <path d="M543.758,3168.02C586.953,3095.57 666.099,3047 756.5,3047C835.891,3047 906.602,3084.46 951.897,3142.65C954.369,3142.22 956.909,3142 959.5,3142C984.06,3142 1004,3161.94 1004,3186.5C1004,3198.41 999.31,3209.24 991.678,3217.23C996.121,3230.74 999.431,3244.77 1001.5,3259.19C1003.48,3259.07 1005.48,3259 1007.5,3259C1058.55,3259 1100,3300.45 1100,3351.5C1100,3381.68 1085.51,3408.51 1063.12,3425.39C1064.03,3431.46 1064.5,3437.68 1064.5,3444C1064.5,3513.13 1008.38,3569.25 939.25,3569.25C903.297,3569.25 870.862,3554.07 848.016,3529.78C823.691,3565.65 782.579,3589.25 736,3589.25C680.112,3589.25 632.096,3555.28 611.497,3506.89C586.653,3551.1 539.291,3581 485,3581C432.174,3581 385.908,3552.69 360.56,3510.43C336.233,3530.17 305.237,3542 271.5,3542C215.747,3542 167.482,3509.69 144.426,3462.78C122.288,3460.59 105,3442.71 105,3421C105,3403.89 115.735,3389.16 131.122,3382.62C138.474,3324.45 181.178,3277.25 237.004,3263.24C237.001,3263.08 237,3262.91 237,3262.75C237,3245.23 250.667,3231 267.5,3231C276.503,3231 284.599,3235.07 290.183,3241.53C319.548,3182.56 380.45,3142 450.75,3142C484.792,3142 516.63,3151.51 543.758,3168.02ZM539.206,3175.5L551.279,3172.51C592.947,3102.62 669.293,3055.76 756.5,3055.76C833.085,3055.76 901.294,3091.9 944.988,3148.03L953.385,3151.28C955.373,3150.93 957.416,3150.76 959.5,3150.76C979.228,3150.76 995.244,3166.77 995.244,3186.5C995.244,3196.07 991.476,3204.76 985.346,3211.18L983.36,3219.96C987.645,3232.99 990.837,3246.52 992.828,3260.43L1002.06,3267.93C1003.86,3267.82 1005.67,3267.76 1007.5,3267.76C1053.72,3267.76 1091.24,3305.28 1091.24,3351.5C1091.24,3378.83 1078.12,3403.11 1057.85,3418.4L1054.46,3426.68C1055.31,3432.33 1055.74,3438.11 1055.74,3444C1055.74,3508.3 1003.55,3560.49 939.25,3560.49C905.81,3560.49 875.643,3546.37 854.394,3523.78L840.769,3524.86C818.017,3558.42 779.567,3580.49 736,3580.49C683.728,3580.49 638.82,3548.72 619.553,3503.46L603.863,3502.6C580.518,3544.14 536.016,3572.24 485,3572.24C435.36,3572.24 391.888,3545.64 368.069,3505.93L355.043,3503.63C332.223,3522.14 303.147,3533.24 271.5,3533.24C219.194,3533.24 173.915,3502.92 152.284,3458.91L145.287,3454.06C127.679,3452.32 113.756,3438.26 113.756,3421C113.756,3407.45 122.364,3395.86 134.55,3390.67L139.808,3383.72C146.705,3329.16 186.767,3284.88 239.135,3271.74L245.759,3263.11C245.757,3262.99 245.756,3262.87 245.756,3262.75C245.756,3250.15 255.4,3239.76 267.5,3239.76C273.879,3239.76 279.6,3242.68 283.557,3247.26L298.022,3245.44C325.953,3189.34 383.88,3150.76 450.75,3150.76C483.126,3150.76 513.406,3159.8 539.206,3175.5Z" style="fill:rgb(248,247,242);"/>
                    </g>
                </g>
            </g>
            <g transform="matrix(0.57344,0,0,0.323506,9430.58,2184.94)">
                <path d="M6789.14,5933.24L6776.42,5918.95L6798.43,5894.23L6820.44,5918.95L6807.71,5933.24L6807.71,5998.43L6836.48,5954.32L6838.24,5959.31L6807.71,6006.11L6807.71,6051.57L6874.54,5943.67L6878.05,5954.18L6807.71,6067.74L6807.71,6092.77L6838.24,6127.06L6807.71,6161.35L6807.71,6166.73L6835.68,6182.62L6839.16,6180.07L6848.18,6133.98L6896.78,6137.75L6915.71,6123.84L6951.61,6005.34L6962.31,6001.18L6927.84,6114.93L6962.11,6089.77L6976.93,6036.11L6982.05,6034.19L6967.88,6085.53L7019.68,6047.49L7024.63,6022.21L7057.63,6024.77L7051.27,6057.25L7039.06,6056.3L6986.69,6094.76L7032.82,6091.43L7029.91,6095.85L6980.34,6099.42L6942.91,6126.91L7064.33,6115.28L7058.09,6124.43L6929.52,6136.75L6904.67,6155L6896.37,6197.37L6851.69,6193.91L6851.26,6194.23L6851.26,6243.73L6851.76,6244.04L6899.09,6236.49L6911.83,6281.79L6931.52,6294.16L7066.17,6296.13L7073.13,6304.75L6945.4,6302.88L6984.42,6327.39L7040.39,6326.9L7043.65,6331.07L6991,6331.53L7046.72,6366.53L7064.79,6363.65L7073.76,6395.51L7041.07,6400.73L7035.67,6381.53L6981.28,6347.35L6997.67,6392.22L6992.4,6390.72L6975.16,6343.51L6938.94,6320.75L6980.65,6426.72L6969.65,6423.43L6926.05,6312.65L6900.36,6296.51L6856.18,6303.56L6844.28,6261.28L6839.44,6258.24L6807.71,6276.27L6807.71,6279.66L6838.24,6313.95L6807.71,6348.24L6807.71,6373.27L6878.05,6486.83L6874.54,6497.34L6807.71,6389.44L6807.71,6434.9L6838.24,6481.7L6836.48,6486.69L6807.71,6442.58L6807.71,6507.71L6807.67,6507.71L6820.44,6522.06L6798.43,6546.78L6776.42,6522.06L6789.19,6507.71L6789.14,6507.71L6789.14,6442.94L6760.19,6480.91L6758.62,6475.67L6789.14,6435.63L6789.14,6392.38L6721.96,6485.17L6718.8,6474.14L6789.14,6376.98L6789.14,6348.24L6758.62,6313.95L6789.14,6279.66L6789.14,6276.27L6761.18,6260.38L6759.75,6261.43L6751.9,6300.86L6710.59,6297.53L6681.97,6318.55L6648.09,6429.18L6637.38,6433.32L6669.79,6327.5L6635.65,6352.57L6622.86,6398.34L6617.73,6400.24L6629.86,6356.82L6578.63,6394.44L6575.12,6412.09L6542.13,6409.44L6548.59,6376.97L6568.82,6378.6L6622.74,6339L6567.14,6342.85L6570.06,6338.44L6629.06,6334.36L6666.65,6306.76L6535.7,6318.9L6541.97,6309.77L6679.11,6297.05L6679.26,6296.56L6679.72,6297.16L6694.1,6286.59L6703.91,6237.32L6745.6,6240.68L6745.6,6199.28L6742.46,6197.3L6704.74,6204.38L6692.85,6166.13L6663.52,6147.71L6536.1,6149.3L6528.91,6140.88L6650.23,6139.36L6613.02,6115.97L6561.03,6117.84L6557.66,6113.77L6606.7,6112L6553.31,6078.46L6535.64,6081.77L6525.82,6050.17L6558.35,6044.07L6564.38,6063.48L6620.82,6098.94L6601.96,6051.39L6607.27,6052.74L6627.16,6102.93L6664.92,6126.65L6618.04,6016.44L6629.12,6019.43L6678.31,6135.06L6695.18,6145.66L6745.82,6136.16L6760.4,6183.07L6789.14,6166.73L6789.14,6161.35L6758.62,6127.06L6789.14,6092.77L6789.14,6064.03L6718.8,5966.87L6721.96,5955.83L6789.14,6048.63L6789.14,6005.37L6758.62,5965.33L6760.19,5960.09L6789.14,5998.06L6789.14,5933.24ZM6798.43,6183.43L6831.92,6202.47L6831.92,6240.53L6798.43,6259.57L6764.94,6240.53L6764.94,6202.47L6798.43,6183.43Z" style="fill:rgb(76,177,252);stroke:white;stroke-width:12.62px;"/>
            </g>
            <g transform="matrix(0.57344,0,0,0.323506,9945.66,2318.58)">
                <path d="M6789.14,5933.24L6776.42,5918.95L6798.43,5894.23L6820.44,5918.95L6807.71,5933.24L6807.71,5998.43L6836.48,5954.32L6838.24,5959.31L6807.71,6006.11L6807.71,6051.57L6874.54,5943.67L6878.05,5954.18L6807.71,6067.74L6807.71,6092.77L6838.24,6127.06L6807.71,6161.35L6807.71,6166.73L6835.68,6182.62L6839.16,6180.07L6848.18,6133.98L6896.78,6137.75L6915.71,6123.84L6951.61,6005.34L6962.31,6001.18L6927.84,6114.93L6962.11,6089.77L6976.93,6036.11L6982.05,6034.19L6967.88,6085.53L7019.68,6047.49L7024.63,6022.21L7057.63,6024.77L7051.27,6057.25L7039.06,6056.3L6986.69,6094.76L7032.82,6091.43L7029.91,6095.85L6980.34,6099.42L6942.91,6126.91L7064.33,6115.28L7058.09,6124.43L6929.52,6136.75L6904.67,6155L6896.37,6197.37L6851.69,6193.91L6851.26,6194.23L6851.26,6243.73L6851.76,6244.04L6899.09,6236.49L6911.83,6281.79L6931.52,6294.16L7066.17,6296.13L7073.13,6304.75L6945.4,6302.88L6984.42,6327.39L7040.39,6326.9L7043.65,6331.07L6991,6331.53L7046.72,6366.53L7064.79,6363.65L7073.76,6395.51L7041.07,6400.73L7035.67,6381.53L6981.28,6347.35L6997.67,6392.22L6992.4,6390.72L6975.16,6343.51L6938.94,6320.75L6980.65,6426.72L6969.65,6423.43L6926.05,6312.65L6900.36,6296.51L6856.18,6303.56L6844.28,6261.28L6839.44,6258.24L6807.71,6276.27L6807.71,6279.66L6838.24,6313.95L6807.71,6348.24L6807.71,6373.27L6878.05,6486.83L6874.54,6497.34L6807.71,6389.44L6807.71,6434.9L6838.24,6481.7L6836.48,6486.69L6807.71,6442.58L6807.71,6507.71L6807.67,6507.71L6820.44,6522.06L6798.43,6546.78L6776.42,6522.06L6789.19,6507.71L6789.14,6507.71L6789.14,6442.94L6760.19,6480.91L6758.62,6475.67L6789.14,6435.63L6789.14,6392.38L6721.96,6485.17L6718.8,6474.14L6789.14,6376.98L6789.14,6348.24L6758.62,6313.95L6789.14,6279.66L6789.14,6276.27L6761.18,6260.38L6759.75,6261.43L6751.9,6300.86L6710.59,6297.53L6681.97,6318.55L6648.09,6429.18L6637.38,6433.32L6669.79,6327.5L6635.65,6352.57L6622.86,6398.34L6617.73,6400.24L6629.86,6356.82L6578.63,6394.44L6575.12,6412.09L6542.13,6409.44L6548.59,6376.97L6568.82,6378.6L6622.74,6339L6567.14,6342.85L6570.06,6338.44L6629.06,6334.36L6666.65,6306.76L6535.7,6318.9L6541.97,6309.77L6679.11,6297.05L6679.26,6296.56L6679.72,6297.16L6694.1,6286.59L6703.91,6237.32L6745.6,6240.68L6745.6,6199.28L6742.46,6197.3L6704.74,6204.38L6692.85,6166.13L6663.52,6147.71L6536.1,6149.3L6528.91,6140.88L6650.23,6139.36L6613.02,6115.97L6561.03,6117.84L6557.66,6113.77L6606.7,6112L6553.31,6078.46L6535.64,6081.77L6525.82,6050.17L6558.35,6044.07L6564.38,6063.48L6620.82,6098.94L6601.96,6051.39L6607.27,6052.74L6627.16,6102.93L6664.92,6126.65L6618.04,6016.44L6629.12,6019.43L6678.31,6135.06L6695.18,6145.66L6745.82,6136.16L6760.4,6183.07L6789.14,6166.73L6789.14,6161.35L6758.62,6127.06L6789.14,6092.77L6789.14,6064.03L6718.8,5966.87L6721.96,5955.83L6789.14,6048.63L6789.14,6005.37L6758.62,5965.33L6760.19,5960.09L6789.14,5998.06L6789.14,5933.24ZM6798.43,6183.43L6831.92,6202.47L6831.92,6240.53L6798.43,6259.57L6764.94,6240.53L6764.94,6202.47L6798.43,6183.43Z" style="fill:rgb(76,177,252);stroke:white;stroke-width:12.62px;"/>
            </g>
            <g transform="matrix(0.57344,0,0,0.323506,10901.1,2175.33)">
                <path d="M6789.14,5933.24L6776.42,5918.95L6798.43,5894.23L6820.44,5918.95L6807.71,5933.24L6807.71,5998.43L6836.48,5954.32L6838.24,5959.31L6807.71,6006.11L6807.71,6051.57L6874.54,5943.67L6878.05,5954.18L6807.71,6067.74L6807.71,6092.77L6838.24,6127.06L6807.71,6161.35L6807.71,6166.73L6835.68,6182.62L6839.16,6180.07L6848.18,6133.98L6896.78,6137.75L6915.71,6123.84L6951.61,6005.34L6962.31,6001.18L6927.84,6114.93L6962.11,6089.77L6976.93,6036.11L6982.05,6034.19L6967.88,6085.53L7019.68,6047.49L7024.63,6022.21L7057.63,6024.77L7051.27,6057.25L7039.06,6056.3L6986.69,6094.76L7032.82,6091.43L7029.91,6095.85L6980.34,6099.42L6942.91,6126.91L7064.33,6115.28L7058.09,6124.43L6929.52,6136.75L6904.67,6155L6896.37,6197.37L6851.69,6193.91L6851.26,6194.23L6851.26,6243.73L6851.76,6244.04L6899.09,6236.49L6911.83,6281.79L6931.52,6294.16L7066.17,6296.13L7073.13,6304.75L6945.4,6302.88L6984.42,6327.39L7040.39,6326.9L7043.65,6331.07L6991,6331.53L7046.72,6366.53L7064.79,6363.65L7073.76,6395.51L7041.07,6400.73L7035.67,6381.53L6981.28,6347.35L6997.67,6392.22L6992.4,6390.72L6975.16,6343.51L6938.94,6320.75L6980.65,6426.72L6969.65,6423.43L6926.05,6312.65L6900.36,6296.51L6856.18,6303.56L6844.28,6261.28L6839.44,6258.24L6807.71,6276.27L6807.71,6279.66L6838.24,6313.95L6807.71,6348.24L6807.71,6373.27L6878.05,6486.83L6874.54,6497.34L6807.71,6389.44L6807.71,6434.9L6838.24,6481.7L6836.48,6486.69L6807.71,6442.58L6807.71,6507.71L6807.67,6507.71L6820.44,6522.06L6798.43,6546.78L6776.42,6522.06L6789.19,6507.71L6789.14,6507.71L6789.14,6442.94L6760.19,6480.91L6758.62,6475.67L6789.14,6435.63L6789.14,6392.38L6721.96,6485.17L6718.8,6474.14L6789.14,6376.98L6789.14,6348.24L6758.62,6313.95L6789.14,6279.66L6789.14,6276.27L6761.18,6260.38L6759.75,6261.43L6751.9,6300.86L6710.59,6297.53L6681.97,6318.55L6648.09,6429.18L6637.38,6433.32L6669.79,6327.5L6635.65,6352.57L6622.86,6398.34L6617.73,6400.24L6629.86,6356.82L6578.63,6394.44L6575.12,6412.09L6542.13,6409.44L6548.59,6376.97L6568.82,6378.6L6622.74,6339L6567.14,6342.85L6570.06,6338.44L6629.06,6334.36L6666.65,6306.76L6535.7,6318.9L6541.97,6309.77L6679.11,6297.05L6679.26,6296.56L6679.72,6297.16L6694.1,6286.59L6703.91,6237.32L6745.6,6240.68L6745.6,6199.28L6742.46,6197.3L6704.74,6204.38L6692.85,6166.13L6663.52,6147.71L6536.1,6149.3L6528.91,6140.88L6650.23,6139.36L6613.02,6115.97L6561.03,6117.84L6557.66,6113.77L6606.7,6112L6553.31,6078.46L6535.64,6081.77L6525.82,6050.17L6558.35,6044.07L6564.38,6063.48L6620.82,6098.94L6601.96,6051.39L6607.27,6052.74L6627.16,6102.93L6664.92,6126.65L6618.04,6016.44L6629.12,6019.43L6678.31,6135.06L6695.18,6145.66L6745.82,6136.16L6760.4,6183.07L6789.14,6166.73L6789.14,6161.35L6758.62,6127.06L6789.14,6092.77L6789.14,6064.03L6718.8,5966.87L6721.96,5955.83L6789.14,6048.63L6789.14,6005.37L6758.62,5965.33L6760.19,5960.09L6789.14,5998.06L6789.14,5933.24ZM6798.43,6183.43L6831.92,6202.47L6831.92,6240.53L6798.43,6259.57L6764.94,6240.53L6764.94,6202.47L6798.43,6183.43Z" style="fill:rgb(76,177,252);stroke:white;stroke-width:12.62px;"/>
            </g>
            <g transform="matrix(0.263814,0,0,0.14883,12617.6,3222.95)">
                <path d="M6789.14,5933.24L6776.42,5918.95L6798.43,5894.23L6820.44,5918.95L6807.71,5933.24L6807.71,5998.43L6836.48,5954.32L6838.24,5959.31L6807.71,6006.11L6807.71,6051.57L6874.54,5943.67L6878.05,5954.18L6807.71,6067.74L6807.71,6092.77L6838.24,6127.06L6807.71,6161.35L6807.71,6166.73L6835.68,6182.62L6839.16,6180.07L6848.18,6133.98L6896.78,6137.75L6915.71,6123.84L6951.61,6005.34L6962.31,6001.18L6927.84,6114.93L6962.11,6089.77L6976.93,6036.11L6982.05,6034.19L6967.88,6085.53L7019.68,6047.49L7024.63,6022.21L7057.63,6024.77L7051.27,6057.25L7039.06,6056.3L6986.69,6094.76L7032.82,6091.43L7029.91,6095.85L6980.34,6099.42L6942.91,6126.91L7064.33,6115.28L7058.09,6124.43L6929.52,6136.75L6904.67,6155L6896.37,6197.37L6851.69,6193.91L6851.26,6194.23L6851.26,6243.73L6851.76,6244.04L6899.09,6236.49L6911.83,6281.79L6931.52,6294.16L7066.17,6296.13L7073.13,6304.75L6945.4,6302.88L6984.42,6327.39L7040.39,6326.9L7043.65,6331.07L6991,6331.53L7046.72,6366.53L7064.79,6363.65L7073.76,6395.51L7041.07,6400.73L7035.67,6381.53L6981.28,6347.35L6997.67,6392.22L6992.4,6390.72L6975.16,6343.51L6938.94,6320.75L6980.65,6426.72L6969.65,6423.43L6926.05,6312.65L6900.36,6296.51L6856.18,6303.56L6844.28,6261.28L6839.44,6258.24L6807.71,6276.27L6807.71,6279.66L6838.24,6313.95L6807.71,6348.24L6807.71,6373.27L6878.05,6486.83L6874.54,6497.34L6807.71,6389.44L6807.71,6434.9L6838.24,6481.7L6836.48,6486.69L6807.71,6442.58L6807.71,6507.71L6807.67,6507.71L6820.44,6522.06L6798.43,6546.78L6776.42,6522.06L6789.19,6507.71L6789.14,6507.71L6789.14,6442.94L6760.19,6480.91L6758.62,6475.67L6789.14,6435.63L6789.14,6392.38L6721.96,6485.17L6718.8,6474.14L6789.14,6376.98L6789.14,6348.24L6758.62,6313.95L6789.14,6279.66L6789.14,6276.27L6761.18,6260.38L6759.75,6261.43L6751.9,6300.86L6710.59,6297.53L6681.97,6318.55L6648.09,6429.18L6637.38,6433.32L6669.79,6327.5L6635.65,6352.57L6622.86,6398.34L6617.73,6400.24L6629.86,6356.82L6578.63,6394.44L6575.12,6412.09L6542.13,6409.44L6548.59,6376.97L6568.82,6378.6L6622.74,6339L6567.14,6342.85L6570.06,6338.44L6629.06,6334.36L6666.65,6306.76L6535.7,6318.9L6541.97,6309.77L6679.11,6297.05L6679.26,6296.56L6679.72,6297.16L6694.1,6286.59L6703.91,6237.32L6745.6,6240.68L6745.6,6199.28L6742.46,6197.3L6704.74,6204.38L6692.85,6166.13L6663.52,6147.71L6536.1,6149.3L6528.91,6140.88L6650.23,6139.36L6613.02,6115.97L6561.03,6117.84L6557.66,6113.77L6606.7,6112L6553.31,6078.46L6535.64,6081.77L6525.82,6050.17L6558.35,6044.07L6564.38,6063.48L6620.82,6098.94L6601.96,6051.39L6607.27,6052.74L6627.16,6102.93L6664.92,6126.65L6618.04,6016.44L6629.12,6019.43L6678.31,6135.06L6695.18,6145.66L6745.82,6136.16L6760.4,6183.07L6789.14,6166.73L6789.14,6161.35L6758.62,6127.06L6789.14,6092.77L6789.14,6064.03L6718.8,5966.87L6721.96,5955.83L6789.14,6048.63L6789.14,6005.37L6758.62,5965.33L6760.19,5960.09L6789.14,5998.06L6789.14,5933.24ZM6798.43,6183.43L6831.92,6202.47L6831.92,6240.53L6798.43,6259.57L6764.94,6240.53L6764.94,6202.47L6798.43,6183.43Z" style="fill:rgb(76,177,252);"/>
                <path d="M6757.73,6271.59L6751.9,6300.86L6710.59,6297.53L6681.97,6318.55L6648.09,6429.18L6637.38,6433.32L6669.79,6327.5L6635.65,6352.57L6622.86,6398.34L6617.73,6400.24L6629.86,6356.82L6578.63,6394.44L6575.12,6412.09L6542.13,6409.44L6548.59,6376.97L6568.82,6378.6L6622.74,6339L6567.14,6342.85L6570.06,6338.44L6629.06,6334.36L6666.65,6306.76L6535.7,6318.9L6541.97,6309.77L6679.11,6297.05L6679.26,6296.56L6679.72,6297.16L6694.1,6286.59L6703.91,6237.32L6745.6,6240.68L6745.6,6199.28L6742.46,6197.3L6704.74,6204.38L6692.85,6166.13L6663.52,6147.71L6536.1,6149.3L6528.91,6140.88L6650.23,6139.36L6613.02,6115.97L6561.03,6117.84L6557.66,6113.77L6606.7,6112L6553.31,6078.46L6535.64,6081.77L6525.82,6050.17L6558.35,6044.07L6564.38,6063.48L6620.82,6098.94L6601.96,6051.39L6607.27,6052.74L6627.16,6102.93L6664.92,6126.65L6618.04,6016.44L6629.12,6019.43L6678.31,6135.06L6695.18,6145.66L6745.82,6136.16L6760.4,6183.07L6789.14,6166.73L6789.14,6161.35L6758.62,6127.06L6789.14,6092.77L6789.14,6064.03L6718.8,5966.87L6721.96,5955.83L6789.14,6048.63L6789.14,6005.37L6758.62,5965.33L6760.19,5960.09L6789.14,5998.06L6789.14,5933.24L6776.42,5918.95L6798.43,5894.23L6820.44,5918.95L6807.71,5933.24L6807.71,5998.43L6836.48,5954.32L6838.24,5959.31L6807.71,6006.11L6807.71,6051.57L6874.54,5943.67L6878.05,5954.18L6807.71,6067.74L6807.71,6092.77L6838.24,6127.06L6807.71,6161.35L6807.71,6166.73L6835.68,6182.62L6839.16,6180.07L6848.18,6133.98L6896.78,6137.75L6915.71,6123.84L6951.61,6005.34L6962.31,6001.18L6927.84,6114.93L6962.11,6089.77L6976.93,6036.11L6982.05,6034.19L6967.88,6085.53L7019.68,6047.49L7024.63,6022.21L7057.63,6024.77L7051.27,6057.25L7039.06,6056.3L6986.69,6094.76L7032.82,6091.43L7029.91,6095.85L6980.34,6099.42L6942.91,6126.91L7064.33,6115.28L7058.09,6124.43L6929.52,6136.75L6904.67,6155L6896.37,6197.37L6852.18,6193.94L6852.66,6181.32C6852.66,6181.32 6886.14,6183.91 6886.14,6183.91L6892.28,6152.57L6893.8,6150.18L6858.41,6147.44L6851.55,6182.49L6846.63,6190.24L6846.4,6190.41L6851.26,6205.21L6851.26,6243.73L6851.76,6244.04L6899.09,6236.49L6911.83,6281.79L6931.52,6294.16L7066.17,6296.13L7073.13,6304.75L6945.4,6302.88L6984.42,6327.39L7040.39,6326.9L7043.65,6331.07L6991,6331.53L7046.72,6366.53L7064.79,6363.65L7073.76,6395.51L7041.07,6400.73L7035.67,6381.53L6981.28,6347.35L6997.67,6392.22L6992.4,6390.72L6975.16,6343.51L6938.94,6320.75L6980.65,6426.72L6969.65,6423.43L6926.05,6312.65L6900.36,6296.51L6856.18,6303.56L6844.28,6261.28L6839.44,6258.24L6807.71,6276.27L6807.71,6279.66L6838.24,6313.95L6807.71,6348.24L6807.71,6373.27L6878.05,6486.83L6874.54,6497.34L6807.71,6389.44L6807.71,6434.9L6838.24,6481.7L6836.48,6486.69L6807.71,6442.58L6807.71,6507.71L6807.67,6507.71L6820.44,6522.06L6798.43,6546.78L6776.42,6522.06L6789.19,6507.71L6789.14,6507.71L6789.14,6442.94L6760.19,6480.91L6758.62,6475.67L6789.14,6435.63L6789.14,6392.38L6721.96,6485.17L6718.8,6474.14L6789.14,6376.98L6789.14,6348.24L6758.62,6313.95L6789.14,6279.66L6789.14,6276.27L6764.08,6262.03L6765.79,6255.54L6758.7,6251.51L6754.43,6244.18L6744.59,6253.27C6744.59,6253.27 6714.1,6250.81 6714.1,6250.81L6707.05,6286.24L6711.61,6284.94C6711.61,6284.94 6741.72,6287.37 6741.72,6287.37L6747.37,6258.96L6757.73,6271.59ZM6798.43,6516.32L6793.32,6522.06C6793.32,6522.06 6798.43,6527.79 6798.43,6527.79C6798.43,6527.79 6803.53,6522.06 6803.53,6522.06L6798.43,6516.32ZM6807.64,6520.26L6798.43,6511.05L6789.21,6520.27L6789.19,6520.34L6798.35,6516.23L6798.24,6516.11L6798.43,6516.19L6798.62,6516.11L6798.51,6516.23L6807.67,6520.34L6807.64,6520.26ZM6566.81,6391.11L6558.78,6390.46C6558.78,6390.46 6557.28,6397.99 6557.28,6397.99C6557.28,6397.99 6564.93,6398.61 6564.93,6398.61L6566.25,6391.98L6566.81,6391.11ZM6799.37,6384.38L6795.87,6389.22L6801.71,6387.55L6799.5,6383.98L6799.37,6384.38ZM7048.03,6378.86L7050.18,6386.49C7050.18,6386.49 7057.76,6385.28 7057.76,6385.28C7057.76,6385.28 7055.68,6377.89 7055.68,6377.89L7048.7,6379L7048.03,6378.86ZM6775.52,6313.95L6798.43,6339.69L6821.34,6313.95L6798.43,6288.21L6775.52,6313.95ZM6671.64,6310.42L6672.13,6311.71L6673.14,6310.28L6671.64,6310.42ZM6937.8,6308.03L6939.24,6311.69L6940.65,6306.92L6936.83,6306.86L6937.8,6308.03ZM6855.24,6256.27L6856.44,6257.86C6856.44,6257.86 6865.29,6289.32 6865.29,6289.32L6898.37,6284.05L6899.41,6284.26L6889.98,6250.73L6855.24,6256.27ZM6758.85,6265.95L6753.66,6250.23C6753.66,6250.23 6752.31,6251.23 6752.31,6251.23L6758.19,6269.26L6758.85,6265.95ZM6798.43,6183.43L6831.92,6202.47L6831.92,6240.53L6798.43,6259.57L6764.94,6240.53L6764.94,6202.47L6798.43,6183.43ZM6840.53,6247.42L6842.37,6247.47L6841.19,6246.29L6840.53,6247.42ZM6851.26,6206.85L6851.15,6206.53L6850.91,6206.51L6851.26,6206.85ZM6843.15,6192.8L6839.06,6193.04L6841.3,6196.9L6850.91,6206.5L6851.14,6206.51L6845.98,6190.72L6843.15,6192.8ZM6752.32,6188.59L6756.25,6195.7L6758.7,6191.49L6759.31,6191.15L6751.45,6188.04L6752.32,6188.59ZM6701.07,6157.4L6704.91,6162.39C6704.91,6162.39 6713.46,6189.9 6713.46,6189.9L6740.13,6184.9L6748.22,6186.43L6737.1,6150.64L6701.07,6157.4ZM6775.52,6127.06L6798.43,6152.79L6821.34,6127.06L6798.43,6101.32L6775.52,6127.06ZM6664.77,6135.48L6663.6,6132.74L6660.81,6135.11L6663.36,6135.08L6664.77,6135.48ZM6928.81,6124.13L6933.33,6123.7L6929.72,6121.15L6928.81,6124.13ZM6937.82,6123.27L6937.93,6123.26L6937.91,6123.2L6937.82,6123.27ZM6552.02,6066.25L6549.63,6058.55C6549.63,6058.55 6542.08,6059.96 6542.08,6059.96C6542.08,6059.96 6544.36,6067.29 6544.36,6067.29L6550.98,6066.05L6552.02,6066.25ZM6799.37,6056.62L6799.5,6057.03L6801.71,6053.45L6795.87,6051.79L6799.37,6056.62ZM7032.88,6045.76L7040.03,6043.71C7040.03,6043.71 7041.04,6043.79 7041.04,6043.79C7041.04,6043.79 7042.51,6036.26 7042.51,6036.26C7042.51,6036.26 7034.86,6035.66 7034.86,6035.66L7032.88,6045.76ZM6798.43,5924.69L6803.53,5918.95C6803.53,5918.95 6798.43,5913.21 6798.43,5913.21C6798.43,5913.21 6793.32,5918.95 6793.32,5918.95L6798.43,5924.69Z" style="fill:white;"/>
            </g>
            <g transform="matrix(0.263814,0,0,0.14883,11880.8,3215.18)">
                <path d="M6789.14,5933.24L6776.42,5918.95L6798.43,5894.23L6820.44,5918.95L6807.71,5933.24L6807.71,5998.43L6836.48,5954.32L6838.24,5959.31L6807.71,6006.11L6807.71,6051.57L6874.54,5943.67L6878.05,5954.18L6807.71,6067.74L6807.71,6092.77L6838.24,6127.06L6807.71,6161.35L6807.71,6166.73L6835.68,6182.62L6839.16,6180.07L6848.18,6133.98L6896.78,6137.75L6915.71,6123.84L6951.61,6005.34L6962.31,6001.18L6927.84,6114.93L6962.11,6089.77L6976.93,6036.11L6982.05,6034.19L6967.88,6085.53L7019.68,6047.49L7024.63,6022.21L7057.63,6024.77L7051.27,6057.25L7039.06,6056.3L6986.69,6094.76L7032.82,6091.43L7029.91,6095.85L6980.34,6099.42L6942.91,6126.91L7064.33,6115.28L7058.09,6124.43L6929.52,6136.75L6904.67,6155L6896.37,6197.37L6851.69,6193.91L6851.26,6194.23L6851.26,6243.73L6851.76,6244.04L6899.09,6236.49L6911.83,6281.79L6931.52,6294.16L7066.17,6296.13L7073.13,6304.75L6945.4,6302.88L6984.42,6327.39L7040.39,6326.9L7043.65,6331.07L6991,6331.53L7046.72,6366.53L7064.79,6363.65L7073.76,6395.51L7041.07,6400.73L7035.67,6381.53L6981.28,6347.35L6997.67,6392.22L6992.4,6390.72L6975.16,6343.51L6938.94,6320.75L6980.65,6426.72L6969.65,6423.43L6926.05,6312.65L6900.36,6296.51L6856.18,6303.56L6844.28,6261.28L6839.44,6258.24L6807.71,6276.27L6807.71,6279.66L6838.24,6313.95L6807.71,6348.24L6807.71,6373.27L6878.05,6486.83L6874.54,6497.34L6807.71,6389.44L6807.71,6434.9L6838.24,6481.7L6836.48,6486.69L6807.71,6442.58L6807.71,6507.71L6807.67,6507.71L6820.44,6522.06L6798.43,6546.78L6776.42,6522.06L6789.19,6507.71L6789.14,6507.71L6789.14,6442.94L6760.19,6480.91L6758.62,6475.67L6789.14,6435.63L6789.14,6392.38L6721.96,6485.17L6718.8,6474.14L6789.14,6376.98L6789.14,6348.24L6758.62,6313.95L6789.14,6279.66L6789.14,6276.27L6761.18,6260.38L6759.75,6261.43L6751.9,6300.86L6710.59,6297.53L6681.97,6318.55L6648.09,6429.18L6637.38,6433.32L6669.79,6327.5L6635.65,6352.57L6622.86,6398.34L6617.73,6400.24L6629.86,6356.82L6578.63,6394.44L6575.12,6412.09L6542.13,6409.44L6548.59,6376.97L6568.82,6378.6L6622.74,6339L6567.14,6342.85L6570.06,6338.44L6629.06,6334.36L6666.65,6306.76L6535.7,6318.9L6541.97,6309.77L6679.11,6297.05L6679.26,6296.56L6679.72,6297.16L6694.1,6286.59L6703.91,6237.32L6745.6,6240.68L6745.6,6199.28L6742.46,6197.3L6704.74,6204.38L6692.85,6166.13L6663.52,6147.71L6536.1,6149.3L6528.91,6140.88L6650.23,6139.36L6613.02,6115.97L6561.03,6117.84L6557.66,6113.77L6606.7,6112L6553.31,6078.46L6535.64,6081.77L6525.82,6050.17L6558.35,6044.07L6564.38,6063.48L6620.82,6098.94L6601.96,6051.39L6607.27,6052.74L6627.16,6102.93L6664.92,6126.65L6618.04,6016.44L6629.12,6019.43L6678.31,6135.06L6695.18,6145.66L6745.82,6136.16L6760.4,6183.07L6789.14,6166.73L6789.14,6161.35L6758.62,6127.06L6789.14,6092.77L6789.14,6064.03L6718.8,5966.87L6721.96,5955.83L6789.14,6048.63L6789.14,6005.37L6758.62,5965.33L6760.19,5960.09L6789.14,5998.06L6789.14,5933.24ZM6798.43,6183.43L6831.92,6202.47L6831.92,6240.53L6798.43,6259.57L6764.94,6240.53L6764.94,6202.47L6798.43,6183.43Z" style="fill:rgb(76,177,252);"/>
                <path d="M6757.73,6271.59L6751.9,6300.86L6710.59,6297.53L6681.97,6318.55L6648.09,6429.18L6637.38,6433.32L6669.79,6327.5L6635.65,6352.57L6622.86,6398.34L6617.73,6400.24L6629.86,6356.82L6578.63,6394.44L6575.12,6412.09L6542.13,6409.44L6548.59,6376.97L6568.82,6378.6L6622.74,6339L6567.14,6342.85L6570.06,6338.44L6629.06,6334.36L6666.65,6306.76L6535.7,6318.9L6541.97,6309.77L6679.11,6297.05L6679.26,6296.56L6679.72,6297.16L6694.1,6286.59L6703.91,6237.32L6745.6,6240.68L6745.6,6199.28L6742.46,6197.3L6704.74,6204.38L6692.85,6166.13L6663.52,6147.71L6536.1,6149.3L6528.91,6140.88L6650.23,6139.36L6613.02,6115.97L6561.03,6117.84L6557.66,6113.77L6606.7,6112L6553.31,6078.46L6535.64,6081.77L6525.82,6050.17L6558.35,6044.07L6564.38,6063.48L6620.82,6098.94L6601.96,6051.39L6607.27,6052.74L6627.16,6102.93L6664.92,6126.65L6618.04,6016.44L6629.12,6019.43L6678.31,6135.06L6695.18,6145.66L6745.82,6136.16L6760.4,6183.07L6789.14,6166.73L6789.14,6161.35L6758.62,6127.06L6789.14,6092.77L6789.14,6064.03L6718.8,5966.87L6721.96,5955.83L6789.14,6048.63L6789.14,6005.37L6758.62,5965.33L6760.19,5960.09L6789.14,5998.06L6789.14,5933.24L6776.42,5918.95L6798.43,5894.23L6820.44,5918.95L6807.71,5933.24L6807.71,5998.43L6836.48,5954.32L6838.24,5959.31L6807.71,6006.11L6807.71,6051.57L6874.54,5943.67L6878.05,5954.18L6807.71,6067.74L6807.71,6092.77L6838.24,6127.06L6807.71,6161.35L6807.71,6166.73L6835.68,6182.62L6839.16,6180.07L6848.18,6133.98L6896.78,6137.75L6915.71,6123.84L6951.61,6005.34L6962.31,6001.18L6927.84,6114.93L6962.11,6089.77L6976.93,6036.11L6982.05,6034.19L6967.88,6085.53L7019.68,6047.49L7024.63,6022.21L7057.63,6024.77L7051.27,6057.25L7039.06,6056.3L6986.69,6094.76L7032.82,6091.43L7029.91,6095.85L6980.34,6099.42L6942.91,6126.91L7064.33,6115.28L7058.09,6124.43L6929.52,6136.75L6904.67,6155L6896.37,6197.37L6852.18,6193.94L6852.66,6181.32C6852.66,6181.32 6886.14,6183.91 6886.14,6183.91L6892.28,6152.57L6893.8,6150.18L6858.41,6147.44L6851.55,6182.49L6846.63,6190.24L6846.4,6190.41L6851.26,6205.21L6851.26,6243.73L6851.76,6244.04L6899.09,6236.49L6911.83,6281.79L6931.52,6294.16L7066.17,6296.13L7073.13,6304.75L6945.4,6302.88L6984.42,6327.39L7040.39,6326.9L7043.65,6331.07L6991,6331.53L7046.72,6366.53L7064.79,6363.65L7073.76,6395.51L7041.07,6400.73L7035.67,6381.53L6981.28,6347.35L6997.67,6392.22L6992.4,6390.72L6975.16,6343.51L6938.94,6320.75L6980.65,6426.72L6969.65,6423.43L6926.05,6312.65L6900.36,6296.51L6856.18,6303.56L6844.28,6261.28L6839.44,6258.24L6807.71,6276.27L6807.71,6279.66L6838.24,6313.95L6807.71,6348.24L6807.71,6373.27L6878.05,6486.83L6874.54,6497.34L6807.71,6389.44L6807.71,6434.9L6838.24,6481.7L6836.48,6486.69L6807.71,6442.58L6807.71,6507.71L6807.67,6507.71L6820.44,6522.06L6798.43,6546.78L6776.42,6522.06L6789.19,6507.71L6789.14,6507.71L6789.14,6442.94L6760.19,6480.91L6758.62,6475.67L6789.14,6435.63L6789.14,6392.38L6721.96,6485.17L6718.8,6474.14L6789.14,6376.98L6789.14,6348.24L6758.62,6313.95L6789.14,6279.66L6789.14,6276.27L6764.08,6262.03L6765.79,6255.54L6758.7,6251.51L6754.43,6244.18L6744.59,6253.27C6744.59,6253.27 6714.1,6250.81 6714.1,6250.81L6707.05,6286.24L6711.61,6284.94C6711.61,6284.94 6741.72,6287.37 6741.72,6287.37L6747.37,6258.96L6757.73,6271.59ZM6798.43,6516.32L6793.32,6522.06C6793.32,6522.06 6798.43,6527.79 6798.43,6527.79C6798.43,6527.79 6803.53,6522.06 6803.53,6522.06L6798.43,6516.32ZM6807.65,6520.27L6798.43,6511.05L6789.25,6520.23L6789.19,6520.34L6798.35,6516.23L6798.24,6516.11L6798.43,6516.19L6798.62,6516.11L6798.51,6516.23L6807.67,6520.34L6807.65,6520.27ZM6566.81,6391.11L6558.78,6390.46C6558.78,6390.46 6557.28,6397.99 6557.28,6397.99C6557.28,6397.99 6564.93,6398.61 6564.93,6398.61L6566.25,6391.98L6566.81,6391.11ZM6799.37,6384.38L6795.87,6389.22L6801.71,6387.55L6799.5,6383.98L6799.37,6384.38ZM7048.03,6378.86L7050.18,6386.49C7050.18,6386.49 7057.76,6385.28 7057.76,6385.28C7057.76,6385.28 7055.68,6377.89 7055.68,6377.89L7048.7,6379L7048.03,6378.86ZM6775.52,6313.95L6798.43,6339.69L6821.34,6313.95L6798.43,6288.21L6775.52,6313.95ZM6671.64,6310.42L6672.13,6311.71L6673.14,6310.28L6671.64,6310.42ZM6937.8,6308.03L6939.24,6311.69L6940.65,6306.92L6936.83,6306.86L6937.8,6308.03ZM6855.24,6256.27L6856.44,6257.86C6856.44,6257.86 6865.29,6289.32 6865.29,6289.32L6898.37,6284.05L6899.41,6284.26L6889.98,6250.73L6855.24,6256.27ZM6758.85,6265.95L6753.66,6250.23C6753.66,6250.23 6752.31,6251.23 6752.31,6251.23L6758.19,6269.26L6758.85,6265.95ZM6798.43,6183.43L6831.92,6202.47L6831.92,6240.53L6798.43,6259.57L6764.94,6240.53L6764.94,6202.47L6798.43,6183.43ZM6840.53,6247.42L6842.37,6247.47L6841.19,6246.29L6840.53,6247.42ZM6851.26,6206.85L6851.15,6206.53L6850.91,6206.51L6851.26,6206.85ZM6843.15,6192.8L6839.06,6193.04L6841.3,6196.9L6850.91,6206.5L6851.14,6206.51L6845.98,6190.72L6843.15,6192.8ZM6752.32,6188.59L6756.25,6195.7L6758.7,6191.49L6759.31,6191.15L6751.45,6188.04L6752.32,6188.59ZM6701.07,6157.4L6704.91,6162.39C6704.91,6162.39 6713.46,6189.9 6713.46,6189.9L6740.13,6184.9L6748.22,6186.43L6737.1,6150.64L6701.07,6157.4ZM6775.52,6127.06L6798.43,6152.79L6821.34,6127.06L6798.43,6101.32L6775.52,6127.06ZM6664.77,6135.48L6663.6,6132.74L6660.81,6135.11L6663.36,6135.08L6664.77,6135.48ZM6928.81,6124.13L6933.33,6123.7L6929.72,6121.15L6928.81,6124.13ZM6937.82,6123.27L6937.93,6123.26L6937.91,6123.2L6937.82,6123.27ZM6552.02,6066.25L6549.63,6058.55C6549.63,6058.55 6542.08,6059.96 6542.08,6059.96C6542.08,6059.96 6544.36,6067.29 6544.36,6067.29L6550.98,6066.05L6552.02,6066.25ZM6799.37,6056.62L6799.5,6057.03L6801.71,6053.45L6795.87,6051.79L6799.37,6056.62ZM7032.88,6045.76L7040.03,6043.71C7040.03,6043.71 7041.04,6043.79 7041.04,6043.79C7041.04,6043.79 7042.51,6036.26 7042.51,6036.26C7042.51,6036.26 7034.86,6035.66 7034.86,6035.66L7032.88,6045.76ZM6798.43,5924.69L6803.53,5918.95C6803.53,5918.95 6798.43,5913.21 6798.43,5913.21C6798.43,5913.21 6793.32,5918.95 6793.32,5918.95L6798.43,5924.69Z" style="fill:white;"/>
            </g>
            <g transform="matrix(0.263814,0,0,0.14883,12872.4,3454.1)">
                <path d="M6789.14,5933.24L6776.42,5918.95L6798.43,5894.23L6820.44,5918.95L6807.71,5933.24L6807.71,5998.43L6836.48,5954.32L6838.24,5959.31L6807.71,6006.11L6807.71,6051.57L6874.54,5943.67L6878.05,5954.18L6807.71,6067.74L6807.71,6092.77L6838.24,6127.06L6807.71,6161.35L6807.71,6166.73L6835.68,6182.62L6839.16,6180.07L6848.18,6133.98L6896.78,6137.75L6915.71,6123.84L6951.61,6005.34L6962.31,6001.18L6927.84,6114.93L6962.11,6089.77L6976.93,6036.11L6982.05,6034.19L6967.88,6085.53L7019.68,6047.49L7024.63,6022.21L7057.63,6024.77L7051.27,6057.25L7039.06,6056.3L6986.69,6094.76L7032.82,6091.43L7029.91,6095.85L6980.34,6099.42L6942.91,6126.91L7064.33,6115.28L7058.09,6124.43L6929.52,6136.75L6904.67,6155L6896.37,6197.37L6851.69,6193.91L6851.26,6194.23L6851.26,6243.73L6851.76,6244.04L6899.09,6236.49L6911.83,6281.79L6931.52,6294.16L7066.17,6296.13L7073.13,6304.75L6945.4,6302.88L6984.42,6327.39L7040.39,6326.9L7043.65,6331.07L6991,6331.53L7046.72,6366.53L7064.79,6363.65L7073.76,6395.51L7041.07,6400.73L7035.67,6381.53L6981.28,6347.35L6997.67,6392.22L6992.4,6390.72L6975.16,6343.51L6938.94,6320.75L6980.65,6426.72L6969.65,6423.43L6926.05,6312.65L6900.36,6296.51L6856.18,6303.56L6844.28,6261.28L6839.44,6258.24L6807.71,6276.27L6807.71,6279.66L6838.24,6313.95L6807.71,6348.24L6807.71,6373.27L6878.05,6486.83L6874.54,6497.34L6807.71,6389.44L6807.71,6434.9L6838.24,6481.7L6836.48,6486.69L6807.71,6442.58L6807.71,6507.71L6807.67,6507.71L6820.44,6522.06L6798.43,6546.78L6776.42,6522.06L6789.19,6507.71L6789.14,6507.71L6789.14,6442.94L6760.19,6480.91L6758.62,6475.67L6789.14,6435.63L6789.14,6392.38L6721.96,6485.17L6718.8,6474.14L6789.14,6376.98L6789.14,6348.24L6758.62,6313.95L6789.14,6279.66L6789.14,6276.27L6761.18,6260.38L6759.75,6261.43L6751.9,6300.86L6710.59,6297.53L6681.97,6318.55L6648.09,6429.18L6637.38,6433.32L6669.79,6327.5L6635.65,6352.57L6622.86,6398.34L6617.73,6400.24L6629.86,6356.82L6578.63,6394.44L6575.12,6412.09L6542.13,6409.44L6548.59,6376.97L6568.82,6378.6L6622.74,6339L6567.14,6342.85L6570.06,6338.44L6629.06,6334.36L6666.65,6306.76L6535.7,6318.9L6541.97,6309.77L6679.11,6297.05L6679.26,6296.56L6679.72,6297.16L6694.1,6286.59L6703.91,6237.32L6745.6,6240.68L6745.6,6199.28L6742.46,6197.3L6704.74,6204.38L6692.85,6166.13L6663.52,6147.71L6536.1,6149.3L6528.91,6140.88L6650.23,6139.36L6613.02,6115.97L6561.03,6117.84L6557.66,6113.77L6606.7,6112L6553.31,6078.46L6535.64,6081.77L6525.82,6050.17L6558.35,6044.07L6564.38,6063.48L6620.82,6098.94L6601.96,6051.39L6607.27,6052.74L6627.16,6102.93L6664.92,6126.65L6618.04,6016.44L6629.12,6019.43L6678.31,6135.06L6695.18,6145.66L6745.82,6136.16L6760.4,6183.07L6789.14,6166.73L6789.14,6161.35L6758.62,6127.06L6789.14,6092.77L6789.14,6064.03L6718.8,5966.87L6721.96,5955.83L6789.14,6048.63L6789.14,6005.37L6758.62,5965.33L6760.19,5960.09L6789.14,5998.06L6789.14,5933.24ZM6798.43,6183.43L6831.92,6202.47L6831.92,6240.53L6798.43,6259.57L6764.94,6240.53L6764.94,6202.47L6798.43,6183.43Z" style="fill:rgb(76,177,252);"/>
                <path d="M6757.73,6271.59L6751.9,6300.86L6710.59,6297.53L6681.97,6318.55L6648.09,6429.18L6637.38,6433.32L6669.79,6327.5L6635.65,6352.57L6622.86,6398.34L6617.73,6400.24L6629.86,6356.82L6578.63,6394.44L6575.12,6412.09L6542.13,6409.44L6548.59,6376.97L6568.82,6378.6L6622.74,6339L6567.14,6342.85L6570.06,6338.44L6629.06,6334.36L6666.65,6306.76L6535.7,6318.9L6541.97,6309.77L6679.11,6297.05L6679.26,6296.56L6679.72,6297.16L6694.1,6286.59L6703.91,6237.32L6745.6,6240.68L6745.6,6199.28L6742.46,6197.3L6704.74,6204.38L6692.85,6166.13L6663.52,6147.71L6536.1,6149.3L6528.91,6140.88L6650.23,6139.36L6613.02,6115.97L6561.03,6117.84L6557.66,6113.77L6606.7,6112L6553.31,6078.46L6535.64,6081.77L6525.82,6050.17L6558.35,6044.07L6564.38,6063.48L6620.82,6098.94L6601.96,6051.39L6607.27,6052.74L6627.16,6102.93L6664.92,6126.65L6618.04,6016.44L6629.12,6019.43L6678.31,6135.06L6695.18,6145.66L6745.82,6136.16L6760.4,6183.07L6789.14,6166.73L6789.14,6161.35L6758.62,6127.06L6789.14,6092.77L6789.14,6064.03L6718.8,5966.87L6721.96,5955.83L6789.14,6048.63L6789.14,6005.37L6758.62,5965.33L6760.19,5960.09L6789.14,5998.06L6789.14,5933.24L6776.42,5918.95L6798.43,5894.23L6820.44,5918.95L6807.71,5933.24L6807.71,5998.43L6836.48,5954.32L6838.24,5959.31L6807.71,6006.11L6807.71,6051.57L6874.54,5943.67L6878.05,5954.18L6807.71,6067.74L6807.71,6092.77L6838.24,6127.06L6807.71,6161.35L6807.71,6166.73L6835.68,6182.62L6839.16,6180.07L6848.18,6133.98L6896.78,6137.75L6915.71,6123.84L6951.61,6005.34L6962.31,6001.18L6927.84,6114.93L6962.11,6089.77L6976.93,6036.11L6982.05,6034.19L6967.88,6085.53L7019.68,6047.49L7024.63,6022.21L7057.63,6024.77L7051.27,6057.25L7039.06,6056.3L6986.69,6094.76L7032.82,6091.43L7029.91,6095.85L6980.34,6099.42L6942.91,6126.91L7064.33,6115.28L7058.09,6124.43L6929.52,6136.75L6904.67,6155L6896.37,6197.37L6852.18,6193.94L6852.66,6181.32C6852.66,6181.32 6886.14,6183.91 6886.14,6183.91L6892.28,6152.57L6893.8,6150.18L6858.41,6147.44L6851.55,6182.49L6846.63,6190.24L6846.4,6190.41L6851.26,6205.21L6851.26,6243.73L6851.76,6244.04L6899.09,6236.49L6911.83,6281.79L6931.52,6294.16L7066.17,6296.13L7073.13,6304.75L6945.4,6302.88L6984.42,6327.39L7040.39,6326.9L7043.65,6331.07L6991,6331.53L7046.72,6366.53L7064.79,6363.65L7073.76,6395.51L7041.07,6400.73L7035.67,6381.53L6981.28,6347.35L6997.67,6392.22L6992.4,6390.72L6975.16,6343.51L6938.94,6320.75L6980.65,6426.72L6969.65,6423.43L6926.05,6312.65L6900.36,6296.51L6856.18,6303.56L6844.28,6261.28L6839.44,6258.24L6807.71,6276.27L6807.71,6279.66L6838.24,6313.95L6807.71,6348.24L6807.71,6373.27L6878.05,6486.83L6874.54,6497.34L6807.71,6389.44L6807.71,6434.9L6838.24,6481.7L6836.48,6486.69L6807.71,6442.58L6807.71,6507.71L6807.67,6507.71L6820.44,6522.06L6798.43,6546.78L6776.42,6522.06L6789.19,6507.71L6789.14,6507.71L6789.14,6442.94L6760.19,6480.91L6758.62,6475.67L6789.14,6435.63L6789.14,6392.38L6721.96,6485.17L6718.8,6474.14L6789.14,6376.98L6789.14,6348.24L6758.62,6313.95L6789.14,6279.66L6789.14,6276.27L6764.08,6262.03L6765.79,6255.54L6758.7,6251.51L6754.43,6244.18L6744.59,6253.27C6744.59,6253.27 6714.1,6250.81 6714.1,6250.81L6707.05,6286.24L6711.61,6284.94C6711.61,6284.94 6741.72,6287.37 6741.72,6287.37L6747.37,6258.96L6757.73,6271.59ZM6798.43,6516.32L6793.32,6522.06C6793.32,6522.06 6798.43,6527.79 6798.43,6527.79C6798.43,6527.79 6803.53,6522.06 6803.53,6522.06L6798.43,6516.32ZM6807.61,6520.24L6798.43,6511.05L6789.22,6520.26L6789.19,6520.34L6798.35,6516.23L6798.24,6516.11L6798.43,6516.19L6798.62,6516.11L6798.51,6516.23L6807.67,6520.34L6807.61,6520.24ZM6566.81,6391.11L6558.78,6390.46C6558.78,6390.46 6557.28,6397.99 6557.28,6397.99C6557.28,6397.99 6564.93,6398.61 6564.93,6398.61L6566.25,6391.98L6566.81,6391.11ZM6799.37,6384.38L6795.87,6389.22L6801.71,6387.55L6799.5,6383.98L6799.37,6384.38ZM7048.03,6378.86L7050.18,6386.49C7050.18,6386.49 7057.76,6385.28 7057.76,6385.28C7057.76,6385.28 7055.68,6377.89 7055.68,6377.89L7048.7,6379L7048.03,6378.86ZM6775.52,6313.95L6798.43,6339.69L6821.34,6313.95L6798.43,6288.21L6775.52,6313.95ZM6671.64,6310.42L6672.13,6311.71L6673.14,6310.28L6671.64,6310.42ZM6937.8,6308.03L6939.24,6311.69L6940.65,6306.92L6936.83,6306.86L6937.8,6308.03ZM6855.24,6256.27L6856.44,6257.86C6856.44,6257.86 6865.29,6289.32 6865.29,6289.32L6898.37,6284.05L6899.41,6284.26L6889.98,6250.73L6855.24,6256.27ZM6758.85,6265.95L6753.66,6250.23C6753.66,6250.23 6752.31,6251.23 6752.31,6251.23L6758.19,6269.26L6758.85,6265.95ZM6798.43,6183.43L6831.92,6202.47L6831.92,6240.53L6798.43,6259.57L6764.94,6240.53L6764.94,6202.47L6798.43,6183.43ZM6840.53,6247.42L6842.37,6247.47L6841.19,6246.29L6840.53,6247.42ZM6851.26,6206.85L6851.15,6206.53L6850.91,6206.51L6851.26,6206.85ZM6843.15,6192.8L6839.06,6193.04L6841.3,6196.9L6850.91,6206.5L6851.14,6206.51L6845.98,6190.72L6843.15,6192.8ZM6752.32,6188.59L6756.25,6195.7L6758.7,6191.49L6759.31,6191.15L6751.45,6188.04L6752.32,6188.59ZM6701.07,6157.4L6704.91,6162.39C6704.91,6162.39 6713.46,6189.9 6713.46,6189.9L6740.13,6184.9L6748.22,6186.43L6737.1,6150.64L6701.07,6157.4ZM6775.52,6127.06L6798.43,6152.79L6821.34,6127.06L6798.43,6101.32L6775.52,6127.06ZM6664.77,6135.48L6663.6,6132.74L6660.81,6135.11L6663.36,6135.08L6664.77,6135.48ZM6928.81,6124.13L6933.33,6123.7L6929.72,6121.15L6928.81,6124.13ZM6937.82,6123.27L6937.93,6123.26L6937.91,6123.2L6937.82,6123.27ZM6552.02,6066.25L6549.63,6058.55C6549.63,6058.55 6542.08,6059.96 6542.08,6059.96C6542.08,6059.96 6544.36,6067.29 6544.36,6067.29L6550.98,6066.05L6552.02,6066.25ZM6799.37,6056.62L6799.5,6057.03L6801.71,6053.45L6795.87,6051.79L6799.37,6056.62ZM7032.88,6045.76L7040.03,6043.71C7040.03,6043.71 7041.04,6043.79 7041.04,6043.79C7041.04,6043.79 7042.51,6036.26 7042.51,6036.26C7042.51,6036.26 7034.86,6035.66 7034.86,6035.66L7032.88,6045.76ZM6798.43,5924.69L6803.53,5918.95C6803.53,5918.95 6798.43,5913.21 6798.43,5913.21C6798.43,5913.21 6793.32,5918.95 6793.32,5918.95L6798.43,5924.69Z" style="fill:white;"/>
            </g>
            <g transform="matrix(0.263814,0,0,0.14883,11292.7,3453.71)">
                <path d="M6789.14,5933.24L6776.42,5918.95L6798.43,5894.23L6820.44,5918.95L6807.71,5933.24L6807.71,5998.43L6836.48,5954.32L6838.24,5959.31L6807.71,6006.11L6807.71,6051.57L6874.54,5943.67L6878.05,5954.18L6807.71,6067.74L6807.71,6092.77L6838.24,6127.06L6807.71,6161.35L6807.71,6166.73L6835.68,6182.62L6839.16,6180.07L6848.18,6133.98L6896.78,6137.75L6915.71,6123.84L6951.61,6005.34L6962.31,6001.18L6927.84,6114.93L6962.11,6089.77L6976.93,6036.11L6982.05,6034.19L6967.88,6085.53L7019.68,6047.49L7024.63,6022.21L7057.63,6024.77L7051.27,6057.25L7039.06,6056.3L6986.69,6094.76L7032.82,6091.43L7029.91,6095.85L6980.34,6099.42L6942.91,6126.91L7064.33,6115.28L7058.09,6124.43L6929.52,6136.75L6904.67,6155L6896.37,6197.37L6851.69,6193.91L6851.26,6194.23L6851.26,6243.73L6851.76,6244.04L6899.09,6236.49L6911.83,6281.79L6931.52,6294.16L7066.17,6296.13L7073.13,6304.75L6945.4,6302.88L6984.42,6327.39L7040.39,6326.9L7043.65,6331.07L6991,6331.53L7046.72,6366.53L7064.79,6363.65L7073.76,6395.51L7041.07,6400.73L7035.67,6381.53L6981.28,6347.35L6997.67,6392.22L6992.4,6390.72L6975.16,6343.51L6938.94,6320.75L6980.65,6426.72L6969.65,6423.43L6926.05,6312.65L6900.36,6296.51L6856.18,6303.56L6844.28,6261.28L6839.44,6258.24L6807.71,6276.27L6807.71,6279.66L6838.24,6313.95L6807.71,6348.24L6807.71,6373.27L6878.05,6486.83L6874.54,6497.34L6807.71,6389.44L6807.71,6434.9L6838.24,6481.7L6836.48,6486.69L6807.71,6442.58L6807.71,6507.71L6807.67,6507.71L6820.44,6522.06L6798.43,6546.78L6776.42,6522.06L6789.19,6507.71L6789.14,6507.71L6789.14,6442.94L6760.19,6480.91L6758.62,6475.67L6789.14,6435.63L6789.14,6392.38L6721.96,6485.17L6718.8,6474.14L6789.14,6376.98L6789.14,6348.24L6758.62,6313.95L6789.14,6279.66L6789.14,6276.27L6761.18,6260.38L6759.75,6261.43L6751.9,6300.86L6710.59,6297.53L6681.97,6318.55L6648.09,6429.18L6637.38,6433.32L6669.79,6327.5L6635.65,6352.57L6622.86,6398.34L6617.73,6400.24L6629.86,6356.82L6578.63,6394.44L6575.12,6412.09L6542.13,6409.44L6548.59,6376.97L6568.82,6378.6L6622.74,6339L6567.14,6342.85L6570.06,6338.44L6629.06,6334.36L6666.65,6306.76L6535.7,6318.9L6541.97,6309.77L6679.11,6297.05L6679.26,6296.56L6679.72,6297.16L6694.1,6286.59L6703.91,6237.32L6745.6,6240.68L6745.6,6199.28L6742.46,6197.3L6704.74,6204.38L6692.85,6166.13L6663.52,6147.71L6536.1,6149.3L6528.91,6140.88L6650.23,6139.36L6613.02,6115.97L6561.03,6117.84L6557.66,6113.77L6606.7,6112L6553.31,6078.46L6535.64,6081.77L6525.82,6050.17L6558.35,6044.07L6564.38,6063.48L6620.82,6098.94L6601.96,6051.39L6607.27,6052.74L6627.16,6102.93L6664.92,6126.65L6618.04,6016.44L6629.12,6019.43L6678.31,6135.06L6695.18,6145.66L6745.82,6136.16L6760.4,6183.07L6789.14,6166.73L6789.14,6161.35L6758.62,6127.06L6789.14,6092.77L6789.14,6064.03L6718.8,5966.87L6721.96,5955.83L6789.14,6048.63L6789.14,6005.37L6758.62,5965.33L6760.19,5960.09L6789.14,5998.06L6789.14,5933.24ZM6798.43,6183.43L6831.92,6202.47L6831.92,6240.53L6798.43,6259.57L6764.94,6240.53L6764.94,6202.47L6798.43,6183.43Z" style="fill:rgb(76,177,252);"/>
                <path d="M6757.73,6271.59L6751.9,6300.86L6710.59,6297.53L6681.97,6318.55L6648.09,6429.18L6637.38,6433.32L6669.79,6327.5L6635.65,6352.57L6622.86,6398.34L6617.73,6400.24L6629.86,6356.82L6578.63,6394.44L6575.12,6412.09L6542.13,6409.44L6548.59,6376.97L6568.82,6378.6L6622.74,6339L6567.14,6342.85L6570.06,6338.44L6629.06,6334.36L6666.65,6306.76L6535.7,6318.9L6541.97,6309.77L6679.11,6297.05L6679.26,6296.56L6679.72,6297.16L6694.1,6286.59L6703.91,6237.32L6745.6,6240.68L6745.6,6199.28L6742.46,6197.3L6704.74,6204.38L6692.85,6166.13L6663.52,6147.71L6536.1,6149.3L6528.91,6140.88L6650.23,6139.36L6613.02,6115.97L6561.03,6117.84L6557.66,6113.77L6606.7,6112L6553.31,6078.46L6535.64,6081.77L6525.82,6050.17L6558.35,6044.07L6564.38,6063.48L6620.82,6098.94L6601.96,6051.39L6607.27,6052.74L6627.16,6102.93L6664.92,6126.65L6618.04,6016.44L6629.12,6019.43L6678.31,6135.06L6695.18,6145.66L6745.82,6136.16L6760.4,6183.07L6789.14,6166.73L6789.14,6161.35L6758.62,6127.06L6789.14,6092.77L6789.14,6064.03L6718.8,5966.87L6721.96,5955.83L6789.14,6048.63L6789.14,6005.37L6758.62,5965.33L6760.19,5960.09L6789.14,5998.06L6789.14,5933.24L6776.42,5918.95L6798.43,5894.23L6820.44,5918.95L6807.71,5933.24L6807.71,5998.43L6836.48,5954.32L6838.24,5959.31L6807.71,6006.11L6807.71,6051.57L6874.54,5943.67L6878.05,5954.18L6807.71,6067.74L6807.71,6092.77L6838.24,6127.06L6807.71,6161.35L6807.71,6166.73L6835.68,6182.62L6839.16,6180.07L6848.18,6133.98L6896.78,6137.75L6915.71,6123.84L6951.61,6005.34L6962.31,6001.18L6927.84,6114.93L6962.11,6089.77L6976.93,6036.11L6982.05,6034.19L6967.88,6085.53L7019.68,6047.49L7024.63,6022.21L7057.63,6024.77L7051.27,6057.25L7039.06,6056.3L6986.69,6094.76L7032.82,6091.43L7029.91,6095.85L6980.34,6099.42L6942.91,6126.91L7064.33,6115.28L7058.09,6124.43L6929.52,6136.75L6904.67,6155L6896.37,6197.37L6852.18,6193.94L6852.66,6181.32C6852.66,6181.32 6886.14,6183.91 6886.14,6183.91L6892.28,6152.57L6893.8,6150.18L6858.41,6147.44L6851.55,6182.49L6846.63,6190.24L6846.4,6190.41L6851.26,6205.21L6851.26,6243.73L6851.76,6244.04L6899.09,6236.49L6911.83,6281.79L6931.52,6294.16L7066.17,6296.13L7073.13,6304.75L6945.4,6302.88L6984.42,6327.39L7040.39,6326.9L7043.65,6331.07L6991,6331.53L7046.72,6366.53L7064.79,6363.65L7073.76,6395.51L7041.07,6400.73L7035.67,6381.53L6981.28,6347.35L6997.67,6392.22L6992.4,6390.72L6975.16,6343.51L6938.94,6320.75L6980.65,6426.72L6969.65,6423.43L6926.05,6312.65L6900.36,6296.51L6856.18,6303.56L6844.28,6261.28L6839.44,6258.24L6807.71,6276.27L6807.71,6279.66L6838.24,6313.95L6807.71,6348.24L6807.71,6373.27L6878.05,6486.83L6874.54,6497.34L6807.71,6389.44L6807.71,6434.9L6838.24,6481.7L6836.48,6486.69L6807.71,6442.58L6807.71,6507.71L6807.67,6507.71L6820.44,6522.06L6798.43,6546.78L6776.42,6522.06L6789.19,6507.71L6789.14,6507.71L6789.14,6442.94L6760.19,6480.91L6758.62,6475.67L6789.14,6435.63L6789.14,6392.38L6721.96,6485.17L6718.8,6474.14L6789.14,6376.98L6789.14,6348.24L6758.62,6313.95L6789.14,6279.66L6789.14,6276.27L6764.08,6262.03L6765.79,6255.54L6758.7,6251.51L6754.43,6244.18L6744.59,6253.27C6744.59,6253.27 6714.1,6250.81 6714.1,6250.81L6707.05,6286.24L6711.61,6284.94C6711.61,6284.94 6741.72,6287.37 6741.72,6287.37L6747.37,6258.96L6757.73,6271.59ZM6798.43,6516.32L6793.32,6522.06C6793.32,6522.06 6798.43,6527.79 6798.43,6527.79C6798.43,6527.79 6803.53,6522.06 6803.53,6522.06L6798.43,6516.32ZM6807.64,6520.26L6798.43,6511.05L6789.25,6520.23L6789.19,6520.34L6798.35,6516.23L6798.24,6516.11L6798.43,6516.19L6798.62,6516.11L6798.51,6516.23L6807.67,6520.34L6807.64,6520.26ZM6566.81,6391.11L6558.78,6390.46C6558.78,6390.46 6557.28,6397.99 6557.28,6397.99C6557.28,6397.99 6564.93,6398.61 6564.93,6398.61L6566.25,6391.98L6566.81,6391.11ZM6799.37,6384.38L6795.87,6389.22L6801.71,6387.55L6799.5,6383.98L6799.37,6384.38ZM7048.03,6378.86L7050.18,6386.49C7050.18,6386.49 7057.76,6385.28 7057.76,6385.28C7057.76,6385.28 7055.68,6377.89 7055.68,6377.89L7048.7,6379L7048.03,6378.86ZM6775.52,6313.95L6798.43,6339.69L6821.34,6313.95L6798.43,6288.21L6775.52,6313.95ZM6671.64,6310.42L6672.13,6311.71L6673.14,6310.28L6671.64,6310.42ZM6937.8,6308.03L6939.24,6311.69L6940.65,6306.92L6936.83,6306.86L6937.8,6308.03ZM6855.24,6256.27L6856.44,6257.86C6856.44,6257.86 6865.29,6289.32 6865.29,6289.32L6898.37,6284.05L6899.41,6284.26L6889.98,6250.73L6855.24,6256.27ZM6758.85,6265.95L6753.66,6250.23C6753.66,6250.23 6752.31,6251.23 6752.31,6251.23L6758.19,6269.26L6758.85,6265.95ZM6798.43,6183.43L6831.92,6202.47L6831.92,6240.53L6798.43,6259.57L6764.94,6240.53L6764.94,6202.47L6798.43,6183.43ZM6840.53,6247.42L6842.37,6247.47L6841.19,6246.29L6840.53,6247.42ZM6851.26,6206.85L6851.15,6206.53L6850.91,6206.51L6851.26,6206.85ZM6843.15,6192.8L6839.06,6193.04L6841.3,6196.9L6850.91,6206.5L6851.14,6206.51L6845.98,6190.72L6843.15,6192.8ZM6752.32,6188.59L6756.25,6195.7L6758.7,6191.49L6759.31,6191.15L6751.45,6188.04L6752.32,6188.59ZM6701.07,6157.4L6704.91,6162.39C6704.91,6162.39 6713.46,6189.9 6713.46,6189.9L6740.13,6184.9L6748.22,6186.43L6737.1,6150.64L6701.07,6157.4ZM6775.52,6127.06L6798.43,6152.79L6821.34,6127.06L6798.43,6101.32L6775.52,6127.06ZM6664.77,6135.48L6663.6,6132.74L6660.81,6135.11L6663.36,6135.08L6664.77,6135.48ZM6928.81,6124.13L6933.33,6123.7L6929.72,6121.15L6928.81,6124.13ZM6937.82,6123.27L6937.93,6123.26L6937.91,6123.2L6937.82,6123.27ZM6552.02,6066.25L6549.63,6058.55C6549.63,6058.55 6542.08,6059.96 6542.08,6059.96C6542.08,6059.96 6544.36,6067.29 6544.36,6067.29L6550.98,6066.05L6552.02,6066.25ZM6799.37,6056.62L6799.5,6057.03L6801.71,6053.45L6795.87,6051.79L6799.37,6056.62ZM7032.88,6045.76L7040.03,6043.71C7040.03,6043.71 7041.04,6043.79 7041.04,6043.79C7041.04,6043.79 7042.51,6036.26 7042.51,6036.26C7042.51,6036.26 7034.86,6035.66 7034.86,6035.66L7032.88,6045.76ZM6798.43,5924.69L6803.53,5918.95C6803.53,5918.95 6798.43,5913.21 6798.43,5913.21C6798.43,5913.21 6793.32,5918.95 6793.32,5918.95L6798.43,5924.69Z" style="fill:white;"/>
            </g>
            <g transform="matrix(0.263814,0,0,0.14883,11285.8,3106.02)">
                <path d="M6789.14,5933.24L6776.42,5918.95L6798.43,5894.23L6820.44,5918.95L6807.71,5933.24L6807.71,5998.43L6836.48,5954.32L6838.24,5959.31L6807.71,6006.11L6807.71,6051.57L6874.54,5943.67L6878.05,5954.18L6807.71,6067.74L6807.71,6092.77L6838.24,6127.06L6807.71,6161.35L6807.71,6166.73L6835.68,6182.62L6839.16,6180.07L6848.18,6133.98L6896.78,6137.75L6915.71,6123.84L6951.61,6005.34L6962.31,6001.18L6927.84,6114.93L6962.11,6089.77L6976.93,6036.11L6982.05,6034.19L6967.88,6085.53L7019.68,6047.49L7024.63,6022.21L7057.63,6024.77L7051.27,6057.25L7039.06,6056.3L6986.69,6094.76L7032.82,6091.43L7029.91,6095.85L6980.34,6099.42L6942.91,6126.91L7064.33,6115.28L7058.09,6124.43L6929.52,6136.75L6904.67,6155L6896.37,6197.37L6851.69,6193.91L6851.26,6194.23L6851.26,6243.73L6851.76,6244.04L6899.09,6236.49L6911.83,6281.79L6931.52,6294.16L7066.17,6296.13L7073.13,6304.75L6945.4,6302.88L6984.42,6327.39L7040.39,6326.9L7043.65,6331.07L6991,6331.53L7046.72,6366.53L7064.79,6363.65L7073.76,6395.51L7041.07,6400.73L7035.67,6381.53L6981.28,6347.35L6997.67,6392.22L6992.4,6390.72L6975.16,6343.51L6938.94,6320.75L6980.65,6426.72L6969.65,6423.43L6926.05,6312.65L6900.36,6296.51L6856.18,6303.56L6844.28,6261.28L6839.44,6258.24L6807.71,6276.27L6807.71,6279.66L6838.24,6313.95L6807.71,6348.24L6807.71,6373.27L6878.05,6486.83L6874.54,6497.34L6807.71,6389.44L6807.71,6434.9L6838.24,6481.7L6836.48,6486.69L6807.71,6442.58L6807.71,6507.71L6807.67,6507.71L6820.44,6522.06L6798.43,6546.78L6776.42,6522.06L6789.19,6507.71L6789.14,6507.71L6789.14,6442.94L6760.19,6480.91L6758.62,6475.67L6789.14,6435.63L6789.14,6392.38L6721.96,6485.17L6718.8,6474.14L6789.14,6376.98L6789.14,6348.24L6758.62,6313.95L6789.14,6279.66L6789.14,6276.27L6761.18,6260.38L6759.75,6261.43L6751.9,6300.86L6710.59,6297.53L6681.97,6318.55L6648.09,6429.18L6637.38,6433.32L6669.79,6327.5L6635.65,6352.57L6622.86,6398.34L6617.73,6400.24L6629.86,6356.82L6578.63,6394.44L6575.12,6412.09L6542.13,6409.44L6548.59,6376.97L6568.82,6378.6L6622.74,6339L6567.14,6342.85L6570.06,6338.44L6629.06,6334.36L6666.65,6306.76L6535.7,6318.9L6541.97,6309.77L6679.11,6297.05L6679.26,6296.56L6679.72,6297.16L6694.1,6286.59L6703.91,6237.32L6745.6,6240.68L6745.6,6199.28L6742.46,6197.3L6704.74,6204.38L6692.85,6166.13L6663.52,6147.71L6536.1,6149.3L6528.91,6140.88L6650.23,6139.36L6613.02,6115.97L6561.03,6117.84L6557.66,6113.77L6606.7,6112L6553.31,6078.46L6535.64,6081.77L6525.82,6050.17L6558.35,6044.07L6564.38,6063.48L6620.82,6098.94L6601.96,6051.39L6607.27,6052.74L6627.16,6102.93L6664.92,6126.65L6618.04,6016.44L6629.12,6019.43L6678.31,6135.06L6695.18,6145.66L6745.82,6136.16L6760.4,6183.07L6789.14,6166.73L6789.14,6161.35L6758.62,6127.06L6789.14,6092.77L6789.14,6064.03L6718.8,5966.87L6721.96,5955.83L6789.14,6048.63L6789.14,6005.37L6758.62,5965.33L6760.19,5960.09L6789.14,5998.06L6789.14,5933.24ZM6798.43,6183.43L6831.92,6202.47L6831.92,6240.53L6798.43,6259.57L6764.94,6240.53L6764.94,6202.47L6798.43,6183.43Z" style="fill:rgb(76,177,252);"/>
                <path d="M6748.11,5970.43L6732.18,5948.43L6709.82,5952.36L6706.67,5963.4L6708.58,5974.27L6776.52,6068.12C6776.52,6068.12 6776.52,6087.96 6776.52,6087.96C6776.52,6087.96 6749.19,6118.66 6749.19,6118.66L6749.19,6127.19L6743.49,6123.76L6697.71,6132.34C6697.71,6132.34 6688.38,6126.48 6688.38,6126.48C6688.38,6126.48 6640.74,6014.49 6640.74,6014.49L6632.41,6007.24L6621.33,6004.25L6606.42,6021.38L6617.05,6046.37L6610.39,6040.51L6605.08,6039.16L6590.23,6056.04L6594.86,6067.72C6594.86,6067.72 6575.05,6055.28 6575.05,6055.28C6575.05,6055.28 6570.4,6040.32 6570.4,6040.32L6556.02,6031.66L6523.49,6037.76L6513.76,6053.91L6523.59,6085.52L6537.97,6094.18L6550.78,6091.78C6550.78,6091.78 6565.24,6100.86 6565.24,6100.86C6565.24,6100.86 6557.21,6101.15 6557.21,6101.15L6547.93,6121.81L6551.3,6125.89L6555.82,6127.91L6528.75,6128.25L6519.31,6149.07L6526.5,6157.5L6536.26,6161.93L6659.96,6160.38C6659.96,6160.38 6682.18,6174.34 6682.18,6174.34C6682.18,6174.34 6692.69,6208.12 6692.69,6208.12L6707.07,6216.78L6732.98,6211.93L6732.98,6227C6732.98,6227 6704.92,6224.74 6704.92,6224.74L6691.53,6234.86L6682.68,6279.32L6675.32,6284.73L6540.8,6297.2L6531.56,6302.62L6525.29,6311.76L6536.87,6331.47L6563.82,6328.97L6559.54,6331.46L6556.61,6335.87L6568.01,6355.44L6580.18,6354.6C6580.18,6354.6 6565.14,6365.64 6565.14,6365.64C6565.14,6365.64 6549.6,6364.39 6549.6,6364.39L6536.21,6374.51L6529.75,6406.97L6541.11,6422.02L6574.11,6424.68L6587.5,6414.56L6590.06,6401.71C6590.06,6401.71 6607.86,6388.64 6607.86,6388.64C6607.86,6388.64 6605.57,6396.84 6605.57,6396.84L6622.11,6412.08L6627.24,6410.18L6633.26,6403.65L6625.31,6429.62L6641.93,6445.09L6652.63,6440.96L6660.16,6432.88L6692.81,6326.25C6692.81,6326.25 6714.27,6310.49 6714.27,6310.49L6749.19,6313.3L6749.19,6322.34L6776.52,6353.04C6776.52,6353.04 6776.52,6372.89 6776.52,6372.89C6776.52,6372.89 6708.58,6466.73 6708.58,6466.73L6706.67,6477.61L6709.82,6488.64L6732.18,6492.58L6748.11,6470.57L6746.53,6479.31L6748.1,6484.55L6770.23,6488.57L6776.52,6480.32L6776.52,6502.96L6766.99,6513.66L6766.99,6530.45L6789,6555.17L6807.86,6555.17L6829.86,6530.45L6829.86,6513.66L6820.34,6502.96L6820.34,6485.04C6820.34,6485.04 6825.91,6493.59 6825.91,6493.59L6848.39,6490.88L6850.15,6485.89L6849.56,6480.97L6863.81,6503.98L6886.51,6501.34L6890.02,6490.83L6888.78,6480.18L6820.34,6369.67C6820.34,6369.67 6820.34,6353.04 6820.34,6353.04C6820.34,6353.04 6847.67,6322.34 6847.67,6322.34L6847.67,6309.31L6858.17,6316.03L6897.66,6309.73C6897.66,6309.73 6915.82,6321.14 6915.82,6321.14C6915.82,6321.14 6957.9,6428.05 6957.9,6428.05L6966.03,6435.52L6977.03,6438.82L6992.4,6422.1L6982.45,6396.82L6988.95,6402.87L6994.22,6404.36L7009.53,6387.89L7005.79,6377.66C7005.79,6377.66 7024.83,6389.63 7024.83,6389.63C7024.83,6389.63 7028.92,6404.15 7028.92,6404.15L7043.06,6413.19L7075.74,6407.98L7085.91,6392.09L7076.94,6360.23L7062.8,6351.18L7049.41,6353.32C7049.41,6353.32 7034.22,6343.78 7034.22,6343.78C7034.22,6343.78 7043.76,6343.69 7043.76,6343.69L7053.6,6323.3L7050.34,6319.13L7045.88,6316.98L7072.94,6317.37L7082.95,6296.82L7075.99,6288.2L7066.36,6283.51L6935.24,6281.59C6935.24,6281.59 6922.67,6273.69 6922.67,6273.69C6922.67,6273.69 6911.24,6233.07 6911.24,6233.07L6897.1,6224.02L6863.88,6229.32L6863.88,6207.51L6895.4,6209.95L6908.76,6199.8L6916.11,6162.26C6916.11,6162.26 6934.19,6148.98 6934.19,6148.98C6934.19,6148.98 7059.29,6137 7059.29,6137L7068.52,6131.54L7074.76,6122.39L7063.13,6102.71L7036.18,6105.3L7040.45,6102.79L7043.36,6098.37L7031.91,6078.84L7029.46,6079.02C7029.46,6079.02 7042.75,6069.25 7042.75,6069.25C7042.75,6069.25 7050.29,6069.83 7050.29,6069.83L7063.65,6059.67L7070.02,6027.19L7058.6,6012.18L7025.6,6009.62L7012.24,6019.78L7008.23,6040.23C7008.23,6040.23 6989.73,6053.82 6989.73,6053.82C6989.73,6053.82 6994.22,6037.55 6994.22,6037.55L6977.63,6022.36L6972.51,6024.28L6966.51,6030.83L6974.39,6004.84L6957.72,5989.41L6947.03,5993.58L6939.53,6001.68L6904.85,6116.16C6904.85,6116.16 6893.08,6124.8 6893.08,6124.8C6893.08,6124.8 6849.16,6121.4 6849.16,6121.4L6847.67,6122.53L6847.67,6118.66L6820.34,6087.96C6820.34,6087.96 6820.34,6071.33 6820.34,6071.33C6820.34,6071.33 6888.78,5960.82 6888.78,5960.82L6890.02,5950.18L6886.51,5939.67L6863.81,5937.02L6849.56,5960.04L6850.15,5955.12L6848.39,5950.13L6825.91,5947.42L6820.34,5955.97C6820.34,5955.97 6820.34,5938.04 6820.34,5938.04C6820.34,5938.04 6829.86,5927.34 6829.86,5927.34L6829.86,5910.56L6807.86,5885.83L6789,5885.83L6766.99,5910.56L6766.99,5927.34L6776.52,5938.04L6776.52,5960.68C6776.52,5960.68 6770.23,5952.44 6770.23,5952.44L6748.1,5956.45L6746.53,5961.69L6748.11,5970.43ZM6852.18,6193.94L6896.37,6197.37L6904.67,6155L6929.52,6136.75L7058.09,6124.43L7064.33,6115.28L6942.91,6126.91L6980.34,6099.42L7029.91,6095.85L7032.82,6091.43L6986.69,6094.76L7039.06,6056.3L7051.27,6057.25L7057.63,6024.77L7024.63,6022.21L7019.68,6047.49L6967.88,6085.53L6982.05,6034.19L6976.93,6036.11L6962.11,6089.77L6927.84,6114.93L6962.31,6001.18L6951.61,6005.34L6915.71,6123.84L6896.78,6137.75L6848.18,6133.98L6839.16,6180.07L6835.68,6182.62L6807.71,6166.73L6807.71,6161.35L6838.24,6127.06L6807.71,6092.77L6807.71,6067.74L6878.05,5954.18L6874.54,5943.67L6807.71,6051.57L6807.71,6006.11L6838.24,5959.31L6836.48,5954.32L6807.71,5998.43L6807.71,5933.24L6820.44,5918.95L6798.43,5894.23L6776.42,5918.95L6789.14,5933.24L6789.14,5998.06L6760.19,5960.09L6758.62,5965.33L6789.14,6005.37L6789.14,6048.63L6721.96,5955.83L6718.8,5966.87L6789.14,6064.03L6789.14,6092.77L6758.62,6127.06L6789.14,6161.35L6789.14,6166.73L6760.4,6183.07L6745.82,6136.16L6695.18,6145.66L6678.31,6135.06L6629.12,6019.43L6618.04,6016.44L6664.92,6126.65L6627.16,6102.93L6607.27,6052.74L6601.96,6051.39L6620.82,6098.94L6564.38,6063.48L6558.35,6044.07L6525.82,6050.17L6535.64,6081.77L6553.31,6078.46L6606.7,6112L6557.66,6113.77L6561.03,6117.84L6613.02,6115.97L6650.23,6139.36L6528.91,6140.88L6536.1,6149.3L6663.52,6147.71L6692.85,6166.13L6704.74,6204.38L6742.46,6197.3L6745.6,6199.28L6745.6,6240.68L6703.91,6237.32L6694.1,6286.59L6679.72,6297.16L6679.26,6296.56L6679.11,6297.05L6541.97,6309.77L6535.7,6318.9L6666.65,6306.76L6629.06,6334.36L6570.06,6338.44L6567.14,6342.85L6622.74,6339L6568.82,6378.6L6548.59,6376.97L6542.13,6409.44L6575.12,6412.09L6578.63,6394.44L6629.86,6356.82L6617.73,6400.24L6622.86,6398.34L6635.65,6352.57L6669.79,6327.5L6637.38,6433.32L6648.09,6429.18L6681.97,6318.55L6710.59,6297.53L6751.9,6300.86L6757.73,6271.59L6758.26,6272.23L6759.24,6272.49L6758.19,6269.26L6758.85,6265.95L6761.15,6272.91L6761.22,6272.85L6764.08,6262.03L6789.14,6276.27L6789.14,6279.66L6758.62,6313.95L6789.14,6348.24L6789.14,6376.98L6718.8,6474.14L6721.96,6485.17L6789.14,6392.38L6789.14,6435.63L6758.62,6475.67L6760.19,6480.91L6789.14,6442.94L6789.14,6507.71L6789.19,6507.71L6776.42,6522.06L6798.43,6546.78L6820.44,6522.06L6807.67,6507.71L6807.71,6507.71L6807.71,6442.58L6836.48,6486.69L6838.24,6481.7L6807.71,6434.9L6807.71,6389.44L6874.54,6497.34L6878.05,6486.83L6807.71,6373.27L6807.71,6348.24L6838.24,6313.95L6807.71,6279.66L6807.71,6276.27L6839.44,6258.24L6844.28,6261.28L6856.18,6303.56L6900.36,6296.51L6926.05,6312.65L6969.65,6423.43L6980.65,6426.72L6938.94,6320.75L6975.16,6343.51L6992.4,6390.72L6997.67,6392.22L6981.28,6347.35L7035.67,6381.53L7041.07,6400.73L7073.76,6395.51L7064.79,6363.65L7046.72,6366.53L6991,6331.53L7043.65,6331.07L7040.39,6326.9L6984.42,6327.39L6945.4,6302.88L7073.13,6304.75L7066.17,6296.13L6931.52,6294.16L6911.83,6281.79L6899.09,6236.49L6851.76,6244.04L6851.26,6243.73L6851.26,6205.21L6851.66,6206.44L6851.69,6206.41L6852.18,6193.94ZM6776.08,6431.94L6776.52,6431.37C6776.52,6431.37 6776.52,6431.34 6776.52,6431.34L6776.08,6431.94ZM6964.98,6352.44L6964.78,6351.9C6964.78,6351.9 6964.76,6351.89 6964.76,6351.89L6964.98,6352.44ZM6825.52,6280.67L6841.76,6298.91L6835.09,6275.23L6825.52,6280.67ZM6768.06,6284.35L6771.34,6280.67L6769.05,6279.37L6768.06,6284.35ZM6798.43,6183.43L6831.92,6202.47L6831.92,6240.53L6798.43,6259.57L6764.94,6240.53L6764.94,6202.47L6798.43,6183.43ZM6798.43,6197.95L6819.29,6209.81C6819.29,6209.81 6819.29,6233.19 6819.29,6233.19C6819.29,6233.19 6798.43,6245.05 6798.43,6245.05C6798.43,6245.05 6777.56,6233.19 6777.56,6233.19C6777.56,6233.19 6777.56,6209.81 6777.56,6209.81L6798.43,6197.95ZM6824.34,6161.66L6829.34,6164.5L6831.47,6153.65L6824.34,6161.66ZM6767.8,6164.34L6772.52,6161.66L6763.98,6152.07L6767.8,6164.34ZM6635.72,6090.27L6637.38,6094.44C6637.38,6094.44 6637.54,6094.54 6637.54,6094.54L6635.72,6090.27ZM6952.68,6076.48L6950.91,6082.33C6950.91,6082.33 6951.11,6082.19 6951.11,6082.19L6952.68,6076.48ZM6776.08,6009.07L6776.52,6009.67C6776.52,6009.67 6776.52,6009.64 6776.52,6009.64L6776.08,6009.07Z" style="fill:white;"/>
            </g>
            <g transform="matrix(0.263814,0,0,0.14883,12487.5,3436.23)">
                <path d="M6789.14,5933.24L6776.42,5918.95L6798.43,5894.23L6820.44,5918.95L6807.71,5933.24L6807.71,5998.43L6836.48,5954.32L6838.24,5959.31L6807.71,6006.11L6807.71,6051.57L6874.54,5943.67L6878.05,5954.18L6807.71,6067.74L6807.71,6092.77L6838.24,6127.06L6807.71,6161.35L6807.71,6166.73L6835.68,6182.62L6839.16,6180.07L6848.18,6133.98L6896.78,6137.75L6915.71,6123.84L6951.61,6005.34L6962.31,6001.18L6927.84,6114.93L6962.11,6089.77L6976.93,6036.11L6982.05,6034.19L6967.88,6085.53L7019.68,6047.49L7024.63,6022.21L7057.63,6024.77L7051.27,6057.25L7039.06,6056.3L6986.69,6094.76L7032.82,6091.43L7029.91,6095.85L6980.34,6099.42L6942.91,6126.91L7064.33,6115.28L7058.09,6124.43L6929.52,6136.75L6904.67,6155L6896.37,6197.37L6851.69,6193.91L6851.26,6194.23L6851.26,6243.73L6851.76,6244.04L6899.09,6236.49L6911.83,6281.79L6931.52,6294.16L7066.17,6296.13L7073.13,6304.75L6945.4,6302.88L6984.42,6327.39L7040.39,6326.9L7043.65,6331.07L6991,6331.53L7046.72,6366.53L7064.79,6363.65L7073.76,6395.51L7041.07,6400.73L7035.67,6381.53L6981.28,6347.35L6997.67,6392.22L6992.4,6390.72L6975.16,6343.51L6938.94,6320.75L6980.65,6426.72L6969.65,6423.43L6926.05,6312.65L6900.36,6296.51L6856.18,6303.56L6844.28,6261.28L6839.44,6258.24L6807.71,6276.27L6807.71,6279.66L6838.24,6313.95L6807.71,6348.24L6807.71,6373.27L6878.05,6486.83L6874.54,6497.34L6807.71,6389.44L6807.71,6434.9L6838.24,6481.7L6836.48,6486.69L6807.71,6442.58L6807.71,6507.71L6807.67,6507.71L6820.44,6522.06L6798.43,6546.78L6776.42,6522.06L6789.19,6507.71L6789.14,6507.71L6789.14,6442.94L6760.19,6480.91L6758.62,6475.67L6789.14,6435.63L6789.14,6392.38L6721.96,6485.17L6718.8,6474.14L6789.14,6376.98L6789.14,6348.24L6758.62,6313.95L6789.14,6279.66L6789.14,6276.27L6761.18,6260.38L6759.75,6261.43L6751.9,6300.86L6710.59,6297.53L6681.97,6318.55L6648.09,6429.18L6637.38,6433.32L6669.79,6327.5L6635.65,6352.57L6622.86,6398.34L6617.73,6400.24L6629.86,6356.82L6578.63,6394.44L6575.12,6412.09L6542.13,6409.44L6548.59,6376.97L6568.82,6378.6L6622.74,6339L6567.14,6342.85L6570.06,6338.44L6629.06,6334.36L6666.65,6306.76L6535.7,6318.9L6541.97,6309.77L6679.11,6297.05L6679.26,6296.56L6679.72,6297.16L6694.1,6286.59L6703.91,6237.32L6745.6,6240.68L6745.6,6199.28L6742.46,6197.3L6704.74,6204.38L6692.85,6166.13L6663.52,6147.71L6536.1,6149.3L6528.91,6140.88L6650.23,6139.36L6613.02,6115.97L6561.03,6117.84L6557.66,6113.77L6606.7,6112L6553.31,6078.46L6535.64,6081.77L6525.82,6050.17L6558.35,6044.07L6564.38,6063.48L6620.82,6098.94L6601.96,6051.39L6607.27,6052.74L6627.16,6102.93L6664.92,6126.65L6618.04,6016.44L6629.12,6019.43L6678.31,6135.06L6695.18,6145.66L6745.82,6136.16L6760.4,6183.07L6789.14,6166.73L6789.14,6161.35L6758.62,6127.06L6789.14,6092.77L6789.14,6064.03L6718.8,5966.87L6721.96,5955.83L6789.14,6048.63L6789.14,6005.37L6758.62,5965.33L6760.19,5960.09L6789.14,5998.06L6789.14,5933.24ZM6798.43,6183.43L6831.92,6202.47L6831.92,6240.53L6798.43,6259.57L6764.94,6240.53L6764.94,6202.47L6798.43,6183.43Z" style="fill:rgb(76,177,252);"/>
                <path d="M6748.11,5970.43L6732.18,5948.43L6709.82,5952.36L6706.67,5963.4L6708.58,5974.27L6776.52,6068.12C6776.52,6068.12 6776.52,6087.96 6776.52,6087.96C6776.52,6087.96 6749.19,6118.66 6749.19,6118.66L6749.19,6127.19L6743.49,6123.76L6697.71,6132.34C6697.71,6132.34 6688.38,6126.48 6688.38,6126.48C6688.38,6126.48 6640.74,6014.49 6640.74,6014.49L6632.41,6007.24L6621.33,6004.25L6606.42,6021.38L6617.05,6046.37L6610.39,6040.51L6605.08,6039.16L6590.23,6056.04L6594.86,6067.72C6594.86,6067.72 6575.05,6055.28 6575.05,6055.28C6575.05,6055.28 6570.4,6040.32 6570.4,6040.32L6556.02,6031.66L6523.49,6037.76L6513.76,6053.91L6523.59,6085.52L6537.97,6094.18L6550.78,6091.78C6550.78,6091.78 6565.24,6100.86 6565.24,6100.86C6565.24,6100.86 6557.21,6101.15 6557.21,6101.15L6547.93,6121.81L6551.3,6125.89L6555.82,6127.91L6528.75,6128.25L6519.31,6149.07L6526.5,6157.5L6536.26,6161.93L6659.96,6160.38C6659.96,6160.38 6682.18,6174.34 6682.18,6174.34C6682.18,6174.34 6692.69,6208.12 6692.69,6208.12L6707.07,6216.78L6732.98,6211.93L6732.98,6227C6732.98,6227 6704.92,6224.74 6704.92,6224.74L6691.53,6234.86L6682.68,6279.32L6675.32,6284.73L6540.8,6297.2L6531.56,6302.62L6525.29,6311.76L6536.87,6331.47L6563.82,6328.97L6559.54,6331.46L6556.61,6335.87L6568.01,6355.44L6580.18,6354.6C6580.18,6354.6 6565.14,6365.64 6565.14,6365.64C6565.14,6365.64 6549.6,6364.39 6549.6,6364.39L6536.21,6374.51L6529.75,6406.97L6541.11,6422.02L6574.11,6424.68L6587.5,6414.56L6590.06,6401.71C6590.06,6401.71 6607.86,6388.64 6607.86,6388.64C6607.86,6388.64 6605.57,6396.84 6605.57,6396.84L6622.11,6412.08L6627.24,6410.18L6633.26,6403.65L6625.31,6429.62L6641.93,6445.09L6652.63,6440.96L6660.16,6432.88L6692.81,6326.25C6692.81,6326.25 6714.27,6310.49 6714.27,6310.49L6749.19,6313.3L6749.19,6322.34L6776.52,6353.04C6776.52,6353.04 6776.52,6372.89 6776.52,6372.89C6776.52,6372.89 6708.58,6466.73 6708.58,6466.73L6706.67,6477.61L6709.82,6488.64L6732.18,6492.58L6748.11,6470.57L6746.53,6479.31L6748.1,6484.55L6770.23,6488.57L6776.52,6480.32L6776.52,6502.96L6766.99,6513.66L6766.99,6530.45L6789,6555.17L6807.86,6555.17L6829.86,6530.45L6829.86,6513.66L6820.34,6502.96L6820.34,6485.04C6820.34,6485.04 6825.91,6493.59 6825.91,6493.59L6848.39,6490.88L6850.15,6485.89L6849.56,6480.97L6863.81,6503.98L6886.51,6501.34L6890.02,6490.83L6888.78,6480.18L6820.34,6369.67C6820.34,6369.67 6820.34,6353.04 6820.34,6353.04C6820.34,6353.04 6847.67,6322.34 6847.67,6322.34L6847.67,6309.31L6858.17,6316.03L6897.66,6309.73C6897.66,6309.73 6915.82,6321.14 6915.82,6321.14C6915.82,6321.14 6957.9,6428.05 6957.9,6428.05L6966.03,6435.52L6977.03,6438.82L6992.4,6422.1L6982.45,6396.82L6988.95,6402.87L6994.22,6404.36L7009.53,6387.89L7005.79,6377.66C7005.79,6377.66 7024.83,6389.63 7024.83,6389.63C7024.83,6389.63 7028.92,6404.15 7028.92,6404.15L7043.06,6413.19L7075.74,6407.98L7085.91,6392.09L7076.94,6360.23L7062.8,6351.18L7049.41,6353.32C7049.41,6353.32 7034.22,6343.78 7034.22,6343.78C7034.22,6343.78 7043.76,6343.69 7043.76,6343.69L7053.6,6323.3L7050.34,6319.13L7045.88,6316.98L7072.94,6317.37L7082.95,6296.82L7075.99,6288.2L7066.36,6283.51L6935.24,6281.59C6935.24,6281.59 6922.67,6273.69 6922.67,6273.69C6922.67,6273.69 6911.24,6233.07 6911.24,6233.07L6897.1,6224.02L6863.88,6229.32L6863.88,6207.51L6895.4,6209.95L6908.76,6199.8L6916.11,6162.26C6916.11,6162.26 6934.19,6148.98 6934.19,6148.98C6934.19,6148.98 7059.29,6137 7059.29,6137L7068.52,6131.54L7074.76,6122.39L7063.13,6102.71L7036.18,6105.3L7040.45,6102.79L7043.36,6098.37L7031.91,6078.84L7029.46,6079.02C7029.46,6079.02 7042.75,6069.25 7042.75,6069.25C7042.75,6069.25 7050.29,6069.83 7050.29,6069.83L7063.65,6059.67L7070.02,6027.19L7058.6,6012.18L7025.6,6009.62L7012.24,6019.78L7008.23,6040.23C7008.23,6040.23 6989.73,6053.82 6989.73,6053.82C6989.73,6053.82 6994.22,6037.55 6994.22,6037.55L6977.63,6022.36L6972.51,6024.28L6966.51,6030.83L6974.39,6004.84L6957.72,5989.41L6947.03,5993.58L6939.53,6001.68L6904.85,6116.16C6904.85,6116.16 6893.08,6124.8 6893.08,6124.8C6893.08,6124.8 6849.16,6121.4 6849.16,6121.4L6847.67,6122.53L6847.67,6118.66L6820.34,6087.96C6820.34,6087.96 6820.34,6071.33 6820.34,6071.33C6820.34,6071.33 6888.78,5960.82 6888.78,5960.82L6890.02,5950.18L6886.51,5939.67L6863.81,5937.02L6849.56,5960.04L6850.15,5955.12L6848.39,5950.13L6825.91,5947.42L6820.34,5955.97C6820.34,5955.97 6820.34,5938.04 6820.34,5938.04C6820.34,5938.04 6829.86,5927.34 6829.86,5927.34L6829.86,5910.56L6807.86,5885.83L6789,5885.83L6766.99,5910.56L6766.99,5927.34L6776.52,5938.04L6776.52,5960.68C6776.52,5960.68 6770.23,5952.44 6770.23,5952.44L6748.1,5956.45L6746.53,5961.69L6748.11,5970.43ZM6852.18,6193.94L6896.37,6197.37L6904.67,6155L6929.52,6136.75L7058.09,6124.43L7064.33,6115.28L6942.91,6126.91L6980.34,6099.42L7029.91,6095.85L7032.82,6091.43L6986.69,6094.76L7039.06,6056.3L7051.27,6057.25L7057.63,6024.77L7024.63,6022.21L7019.68,6047.49L6967.88,6085.53L6982.05,6034.19L6976.93,6036.11L6962.11,6089.77L6927.84,6114.93L6962.31,6001.18L6951.61,6005.34L6915.71,6123.84L6896.78,6137.75L6848.18,6133.98L6839.16,6180.07L6835.68,6182.62L6807.71,6166.73L6807.71,6161.35L6838.24,6127.06L6807.71,6092.77L6807.71,6067.74L6878.05,5954.18L6874.54,5943.67L6807.71,6051.57L6807.71,6006.11L6838.24,5959.31L6836.48,5954.32L6807.71,5998.43L6807.71,5933.24L6820.44,5918.95L6798.43,5894.23L6776.42,5918.95L6789.14,5933.24L6789.14,5998.06L6760.19,5960.09L6758.62,5965.33L6789.14,6005.37L6789.14,6048.63L6721.96,5955.83L6718.8,5966.87L6789.14,6064.03L6789.14,6092.77L6758.62,6127.06L6789.14,6161.35L6789.14,6166.73L6760.4,6183.07L6745.82,6136.16L6695.18,6145.66L6678.31,6135.06L6629.12,6019.43L6618.04,6016.44L6664.92,6126.65L6627.16,6102.93L6607.27,6052.74L6601.96,6051.39L6620.82,6098.94L6564.38,6063.48L6558.35,6044.07L6525.82,6050.17L6535.64,6081.77L6553.31,6078.46L6606.7,6112L6557.66,6113.77L6561.03,6117.84L6613.02,6115.97L6650.23,6139.36L6528.91,6140.88L6536.1,6149.3L6663.52,6147.71L6692.85,6166.13L6704.74,6204.38L6742.46,6197.3L6745.6,6199.28L6745.6,6240.68L6703.91,6237.32L6694.1,6286.59L6679.72,6297.16L6679.26,6296.56L6679.11,6297.05L6541.97,6309.77L6535.7,6318.9L6666.65,6306.76L6629.06,6334.36L6570.06,6338.44L6567.14,6342.85L6622.74,6339L6568.82,6378.6L6548.59,6376.97L6542.13,6409.44L6575.12,6412.09L6578.63,6394.44L6629.86,6356.82L6617.73,6400.24L6622.86,6398.34L6635.65,6352.57L6669.79,6327.5L6637.38,6433.32L6648.09,6429.18L6681.97,6318.55L6710.59,6297.53L6751.9,6300.86L6757.73,6271.59L6758.26,6272.23L6759.24,6272.49L6758.19,6269.26L6758.85,6265.95L6761.15,6272.91L6761.22,6272.85L6764.08,6262.03L6789.14,6276.27L6789.14,6279.66L6758.62,6313.95L6789.14,6348.24L6789.14,6376.98L6718.8,6474.14L6721.96,6485.17L6789.14,6392.38L6789.14,6435.63L6758.62,6475.67L6760.19,6480.91L6789.14,6442.94L6789.14,6507.71L6789.19,6507.71L6776.42,6522.06L6798.43,6546.78L6820.44,6522.06L6807.67,6507.71L6807.71,6507.71L6807.71,6442.58L6836.48,6486.69L6838.24,6481.7L6807.71,6434.9L6807.71,6389.44L6874.54,6497.34L6878.05,6486.83L6807.71,6373.27L6807.71,6348.24L6838.24,6313.95L6807.71,6279.66L6807.71,6276.27L6839.44,6258.24L6844.28,6261.28L6856.18,6303.56L6900.36,6296.51L6926.05,6312.65L6969.65,6423.43L6980.65,6426.72L6938.94,6320.75L6975.16,6343.51L6992.4,6390.72L6997.67,6392.22L6981.28,6347.35L7035.67,6381.53L7041.07,6400.73L7073.76,6395.51L7064.79,6363.65L7046.72,6366.53L6991,6331.53L7043.65,6331.07L7040.39,6326.9L6984.42,6327.39L6945.4,6302.88L7073.13,6304.75L7066.17,6296.13L6931.52,6294.16L6911.83,6281.79L6899.09,6236.49L6851.76,6244.04L6851.26,6243.73L6851.26,6205.21L6851.66,6206.44L6851.69,6206.41L6852.18,6193.94ZM6776.08,6431.94L6776.52,6431.37C6776.52,6431.37 6776.52,6431.34 6776.52,6431.34L6776.08,6431.94ZM6964.98,6352.44L6964.78,6351.9C6964.78,6351.9 6964.76,6351.89 6964.76,6351.89L6964.98,6352.44ZM6825.52,6280.67L6841.76,6298.91L6835.09,6275.23L6825.52,6280.67ZM6768.06,6284.35L6771.34,6280.67L6769.05,6279.37L6768.06,6284.35ZM6798.43,6183.43L6831.92,6202.47L6831.92,6240.53L6798.43,6259.57L6764.94,6240.53L6764.94,6202.47L6798.43,6183.43ZM6798.43,6197.95L6819.29,6209.81C6819.29,6209.81 6819.29,6233.19 6819.29,6233.19C6819.29,6233.19 6798.43,6245.05 6798.43,6245.05C6798.43,6245.05 6777.56,6233.19 6777.56,6233.19C6777.56,6233.19 6777.56,6209.81 6777.56,6209.81L6798.43,6197.95ZM6824.34,6161.66L6829.34,6164.5L6831.47,6153.65L6824.34,6161.66ZM6767.8,6164.34L6772.52,6161.66L6763.98,6152.07L6767.8,6164.34ZM6635.72,6090.27L6637.38,6094.44C6637.38,6094.44 6637.54,6094.54 6637.54,6094.54L6635.72,6090.27ZM6952.68,6076.48L6950.91,6082.33C6950.91,6082.33 6951.11,6082.19 6951.11,6082.19L6952.68,6076.48ZM6776.08,6009.07L6776.52,6009.67C6776.52,6009.67 6776.52,6009.64 6776.52,6009.64L6776.08,6009.07Z" style="fill:white;"/>
            </g>
            <g transform="matrix(0.263814,0,0,0.14883,11619.6,3455.65)">
                <path d="M6789.14,5933.24L6776.42,5918.95L6798.43,5894.23L6820.44,5918.95L6807.71,5933.24L6807.71,5998.43L6836.48,5954.32L6838.24,5959.31L6807.71,6006.11L6807.71,6051.57L6874.54,5943.67L6878.05,5954.18L6807.71,6067.74L6807.71,6092.77L6838.24,6127.06L6807.71,6161.35L6807.71,6166.73L6835.68,6182.62L6839.16,6180.07L6848.18,6133.98L6896.78,6137.75L6915.71,6123.84L6951.61,6005.34L6962.31,6001.18L6927.84,6114.93L6962.11,6089.77L6976.93,6036.11L6982.05,6034.19L6967.88,6085.53L7019.68,6047.49L7024.63,6022.21L7057.63,6024.77L7051.27,6057.25L7039.06,6056.3L6986.69,6094.76L7032.82,6091.43L7029.91,6095.85L6980.34,6099.42L6942.91,6126.91L7064.33,6115.28L7058.09,6124.43L6929.52,6136.75L6904.67,6155L6896.37,6197.37L6851.69,6193.91L6851.26,6194.23L6851.26,6243.73L6851.76,6244.04L6899.09,6236.49L6911.83,6281.79L6931.52,6294.16L7066.17,6296.13L7073.13,6304.75L6945.4,6302.88L6984.42,6327.39L7040.39,6326.9L7043.65,6331.07L6991,6331.53L7046.72,6366.53L7064.79,6363.65L7073.76,6395.51L7041.07,6400.73L7035.67,6381.53L6981.28,6347.35L6997.67,6392.22L6992.4,6390.72L6975.16,6343.51L6938.94,6320.75L6980.65,6426.72L6969.65,6423.43L6926.05,6312.65L6900.36,6296.51L6856.18,6303.56L6844.28,6261.28L6839.44,6258.24L6807.71,6276.27L6807.71,6279.66L6838.24,6313.95L6807.71,6348.24L6807.71,6373.27L6878.05,6486.83L6874.54,6497.34L6807.71,6389.44L6807.71,6434.9L6838.24,6481.7L6836.48,6486.69L6807.71,6442.58L6807.71,6507.71L6807.67,6507.71L6820.44,6522.06L6798.43,6546.78L6776.42,6522.06L6789.19,6507.71L6789.14,6507.71L6789.14,6442.94L6760.19,6480.91L6758.62,6475.67L6789.14,6435.63L6789.14,6392.38L6721.96,6485.17L6718.8,6474.14L6789.14,6376.98L6789.14,6348.24L6758.62,6313.95L6789.14,6279.66L6789.14,6276.27L6761.18,6260.38L6759.75,6261.43L6751.9,6300.86L6710.59,6297.53L6681.97,6318.55L6648.09,6429.18L6637.38,6433.32L6669.79,6327.5L6635.65,6352.57L6622.86,6398.34L6617.73,6400.24L6629.86,6356.82L6578.63,6394.44L6575.12,6412.09L6542.13,6409.44L6548.59,6376.97L6568.82,6378.6L6622.74,6339L6567.14,6342.85L6570.06,6338.44L6629.06,6334.36L6666.65,6306.76L6535.7,6318.9L6541.97,6309.77L6679.11,6297.05L6679.26,6296.56L6679.72,6297.16L6694.1,6286.59L6703.91,6237.32L6745.6,6240.68L6745.6,6199.28L6742.46,6197.3L6704.74,6204.38L6692.85,6166.13L6663.52,6147.71L6536.1,6149.3L6528.91,6140.88L6650.23,6139.36L6613.02,6115.97L6561.03,6117.84L6557.66,6113.77L6606.7,6112L6553.31,6078.46L6535.64,6081.77L6525.82,6050.17L6558.35,6044.07L6564.38,6063.48L6620.82,6098.94L6601.96,6051.39L6607.27,6052.74L6627.16,6102.93L6664.92,6126.65L6618.04,6016.44L6629.12,6019.43L6678.31,6135.06L6695.18,6145.66L6745.82,6136.16L6760.4,6183.07L6789.14,6166.73L6789.14,6161.35L6758.62,6127.06L6789.14,6092.77L6789.14,6064.03L6718.8,5966.87L6721.96,5955.83L6789.14,6048.63L6789.14,6005.37L6758.62,5965.33L6760.19,5960.09L6789.14,5998.06L6789.14,5933.24ZM6798.43,6183.43L6831.92,6202.47L6831.92,6240.53L6798.43,6259.57L6764.94,6240.53L6764.94,6202.47L6798.43,6183.43Z" style="fill:rgb(76,177,252);"/>
                <path d="M6748.11,5970.43L6732.18,5948.43L6709.82,5952.36L6706.67,5963.4L6708.58,5974.27L6776.52,6068.12C6776.52,6068.12 6776.52,6087.96 6776.52,6087.96C6776.52,6087.96 6749.19,6118.66 6749.19,6118.66L6749.19,6127.19L6743.49,6123.76L6697.71,6132.34C6697.71,6132.34 6688.38,6126.48 6688.38,6126.48C6688.38,6126.48 6640.74,6014.49 6640.74,6014.49L6632.41,6007.24L6621.33,6004.25L6606.42,6021.38L6617.05,6046.37L6610.39,6040.51L6605.08,6039.16L6590.23,6056.04L6594.86,6067.72C6594.86,6067.72 6575.05,6055.28 6575.05,6055.28C6575.05,6055.28 6570.4,6040.32 6570.4,6040.32L6556.02,6031.66L6523.49,6037.76L6513.76,6053.91L6523.59,6085.52L6537.97,6094.18L6550.78,6091.78C6550.78,6091.78 6565.24,6100.86 6565.24,6100.86C6565.24,6100.86 6557.21,6101.15 6557.21,6101.15L6547.93,6121.81L6551.3,6125.89L6555.82,6127.91L6528.75,6128.25L6519.31,6149.07L6526.5,6157.5L6536.26,6161.93L6659.96,6160.38C6659.96,6160.38 6682.18,6174.34 6682.18,6174.34C6682.18,6174.34 6692.69,6208.12 6692.69,6208.12L6707.07,6216.78L6732.98,6211.93L6732.98,6227C6732.98,6227 6704.92,6224.74 6704.92,6224.74L6691.53,6234.86L6682.68,6279.32L6675.32,6284.73L6540.8,6297.2L6531.56,6302.62L6525.29,6311.76L6536.87,6331.47L6563.82,6328.97L6559.54,6331.46L6556.61,6335.87L6568.01,6355.44L6580.18,6354.6C6580.18,6354.6 6565.14,6365.64 6565.14,6365.64C6565.14,6365.64 6549.6,6364.39 6549.6,6364.39L6536.21,6374.51L6529.75,6406.97L6541.11,6422.02L6574.11,6424.68L6587.5,6414.56L6590.06,6401.71C6590.06,6401.71 6607.86,6388.64 6607.86,6388.64C6607.86,6388.64 6605.57,6396.84 6605.57,6396.84L6622.11,6412.08L6627.24,6410.18L6633.26,6403.65L6625.31,6429.62L6641.93,6445.09L6652.63,6440.96L6660.16,6432.88L6692.81,6326.25C6692.81,6326.25 6714.27,6310.49 6714.27,6310.49L6749.19,6313.3L6749.19,6322.34L6776.52,6353.04C6776.52,6353.04 6776.52,6372.89 6776.52,6372.89C6776.52,6372.89 6708.58,6466.73 6708.58,6466.73L6706.67,6477.61L6709.82,6488.64L6732.18,6492.58L6748.11,6470.57L6746.53,6479.31L6748.1,6484.55L6770.23,6488.57L6776.52,6480.32L6776.52,6502.96L6766.99,6513.66L6766.99,6530.45L6789,6555.17L6807.86,6555.17L6829.86,6530.45L6829.86,6513.66L6820.34,6502.96L6820.34,6485.04C6820.34,6485.04 6825.91,6493.59 6825.91,6493.59L6848.39,6490.88L6850.15,6485.89L6849.56,6480.97L6863.81,6503.98L6886.51,6501.34L6890.02,6490.83L6888.78,6480.18L6820.34,6369.67C6820.34,6369.67 6820.34,6353.04 6820.34,6353.04C6820.34,6353.04 6847.67,6322.34 6847.67,6322.34L6847.67,6309.31L6858.17,6316.03L6897.66,6309.73C6897.66,6309.73 6915.82,6321.14 6915.82,6321.14C6915.82,6321.14 6957.9,6428.05 6957.9,6428.05L6966.03,6435.52L6977.03,6438.82L6992.4,6422.1L6982.45,6396.82L6988.95,6402.87L6994.22,6404.36L7009.53,6387.89L7005.79,6377.66C7005.79,6377.66 7024.83,6389.63 7024.83,6389.63C7024.83,6389.63 7028.92,6404.15 7028.92,6404.15L7043.06,6413.19L7075.74,6407.98L7085.91,6392.09L7076.94,6360.23L7062.8,6351.18L7049.41,6353.32C7049.41,6353.32 7034.22,6343.78 7034.22,6343.78C7034.22,6343.78 7043.76,6343.69 7043.76,6343.69L7053.6,6323.3L7050.34,6319.13L7045.88,6316.98L7072.94,6317.37L7082.95,6296.82L7075.99,6288.2L7066.36,6283.51L6935.24,6281.59C6935.24,6281.59 6922.67,6273.69 6922.67,6273.69C6922.67,6273.69 6911.24,6233.07 6911.24,6233.07L6897.1,6224.02L6863.88,6229.32L6863.88,6207.51L6895.4,6209.95L6908.76,6199.8L6916.11,6162.26C6916.11,6162.26 6934.19,6148.98 6934.19,6148.98C6934.19,6148.98 7059.29,6137 7059.29,6137L7068.52,6131.54L7074.76,6122.39L7063.13,6102.71L7036.18,6105.3L7040.45,6102.79L7043.36,6098.37L7031.91,6078.84L7029.46,6079.02C7029.46,6079.02 7042.75,6069.25 7042.75,6069.25C7042.75,6069.25 7050.29,6069.83 7050.29,6069.83L7063.65,6059.67L7070.02,6027.19L7058.6,6012.18L7025.6,6009.62L7012.24,6019.78L7008.23,6040.23C7008.23,6040.23 6989.73,6053.82 6989.73,6053.82C6989.73,6053.82 6994.22,6037.55 6994.22,6037.55L6977.63,6022.36L6972.51,6024.28L6966.51,6030.83L6974.39,6004.84L6957.72,5989.41L6947.03,5993.58L6939.53,6001.68L6904.85,6116.16C6904.85,6116.16 6893.08,6124.8 6893.08,6124.8C6893.08,6124.8 6849.16,6121.4 6849.16,6121.4L6847.67,6122.53L6847.67,6118.66L6820.34,6087.96C6820.34,6087.96 6820.34,6071.33 6820.34,6071.33C6820.34,6071.33 6888.78,5960.82 6888.78,5960.82L6890.02,5950.18L6886.51,5939.67L6863.81,5937.02L6849.56,5960.04L6850.15,5955.12L6848.39,5950.13L6825.91,5947.42L6820.34,5955.97C6820.34,5955.97 6820.34,5938.04 6820.34,5938.04C6820.34,5938.04 6829.86,5927.34 6829.86,5927.34L6829.86,5910.56L6807.86,5885.83L6789,5885.83L6766.99,5910.56L6766.99,5927.34L6776.52,5938.04L6776.52,5960.68C6776.52,5960.68 6770.23,5952.44 6770.23,5952.44L6748.1,5956.45L6746.53,5961.69L6748.11,5970.43ZM6852.18,6193.94L6896.37,6197.37L6904.67,6155L6929.52,6136.75L7058.09,6124.43L7064.33,6115.28L6942.91,6126.91L6980.34,6099.42L7029.91,6095.85L7032.82,6091.43L6986.69,6094.76L7039.06,6056.3L7051.27,6057.25L7057.63,6024.77L7024.63,6022.21L7019.68,6047.49L6967.88,6085.53L6982.05,6034.19L6976.93,6036.11L6962.11,6089.77L6927.84,6114.93L6962.31,6001.18L6951.61,6005.34L6915.71,6123.84L6896.78,6137.75L6848.18,6133.98L6839.16,6180.07L6835.68,6182.62L6807.71,6166.73L6807.71,6161.35L6838.24,6127.06L6807.71,6092.77L6807.71,6067.74L6878.05,5954.18L6874.54,5943.67L6807.71,6051.57L6807.71,6006.11L6838.24,5959.31L6836.48,5954.32L6807.71,5998.43L6807.71,5933.24L6820.44,5918.95L6798.43,5894.23L6776.42,5918.95L6789.14,5933.24L6789.14,5998.06L6760.19,5960.09L6758.62,5965.33L6789.14,6005.37L6789.14,6048.63L6721.96,5955.83L6718.8,5966.87L6789.14,6064.03L6789.14,6092.77L6758.62,6127.06L6789.14,6161.35L6789.14,6166.73L6760.4,6183.07L6745.82,6136.16L6695.18,6145.66L6678.31,6135.06L6629.12,6019.43L6618.04,6016.44L6664.92,6126.65L6627.16,6102.93L6607.27,6052.74L6601.96,6051.39L6620.82,6098.94L6564.38,6063.48L6558.35,6044.07L6525.82,6050.17L6535.64,6081.77L6553.31,6078.46L6606.7,6112L6557.66,6113.77L6561.03,6117.84L6613.02,6115.97L6650.23,6139.36L6528.91,6140.88L6536.1,6149.3L6663.52,6147.71L6692.85,6166.13L6704.74,6204.38L6742.46,6197.3L6745.6,6199.28L6745.6,6240.68L6703.91,6237.32L6694.1,6286.59L6679.72,6297.16L6679.26,6296.56L6679.11,6297.05L6541.97,6309.77L6535.7,6318.9L6666.65,6306.76L6629.06,6334.36L6570.06,6338.44L6567.14,6342.85L6622.74,6339L6568.82,6378.6L6548.59,6376.97L6542.13,6409.44L6575.12,6412.09L6578.63,6394.44L6629.86,6356.82L6617.73,6400.24L6622.86,6398.34L6635.65,6352.57L6669.79,6327.5L6637.38,6433.32L6648.09,6429.18L6681.97,6318.55L6710.59,6297.53L6751.9,6300.86L6757.73,6271.59L6758.26,6272.23L6759.24,6272.49L6758.19,6269.26L6758.85,6265.95L6761.15,6272.91L6761.22,6272.85L6764.08,6262.03L6789.14,6276.27L6789.14,6279.66L6758.62,6313.95L6789.14,6348.24L6789.14,6376.98L6718.8,6474.14L6721.96,6485.17L6789.14,6392.38L6789.14,6435.63L6758.62,6475.67L6760.19,6480.91L6789.14,6442.94L6789.14,6507.71L6789.19,6507.71L6776.42,6522.06L6798.43,6546.78L6820.44,6522.06L6807.67,6507.71L6807.71,6507.71L6807.71,6442.58L6836.48,6486.69L6838.24,6481.7L6807.71,6434.9L6807.71,6389.44L6874.54,6497.34L6878.05,6486.83L6807.71,6373.27L6807.71,6348.24L6838.24,6313.95L6807.71,6279.66L6807.71,6276.27L6839.44,6258.24L6844.28,6261.28L6856.18,6303.56L6900.36,6296.51L6926.05,6312.65L6969.65,6423.43L6980.65,6426.72L6938.94,6320.75L6975.16,6343.51L6992.4,6390.72L6997.67,6392.22L6981.28,6347.35L7035.67,6381.53L7041.07,6400.73L7073.76,6395.51L7064.79,6363.65L7046.72,6366.53L6991,6331.53L7043.65,6331.07L7040.39,6326.9L6984.42,6327.39L6945.4,6302.88L7073.13,6304.75L7066.17,6296.13L6931.52,6294.16L6911.83,6281.79L6899.09,6236.49L6851.76,6244.04L6851.26,6243.73L6851.26,6205.21L6851.66,6206.44L6851.69,6206.41L6852.18,6193.94ZM6776.08,6431.94L6776.52,6431.37C6776.52,6431.37 6776.52,6431.34 6776.52,6431.34L6776.08,6431.94ZM6964.98,6352.44L6964.78,6351.9C6964.78,6351.9 6964.76,6351.89 6964.76,6351.89L6964.98,6352.44ZM6825.52,6280.67L6841.76,6298.91L6835.09,6275.23L6825.52,6280.67ZM6768.06,6284.35L6771.34,6280.67L6769.05,6279.37L6768.06,6284.35ZM6798.43,6183.43L6831.92,6202.47L6831.92,6240.53L6798.43,6259.57L6764.94,6240.53L6764.94,6202.47L6798.43,6183.43ZM6798.43,6197.95L6819.29,6209.81C6819.29,6209.81 6819.29,6233.19 6819.29,6233.19C6819.29,6233.19 6798.43,6245.05 6798.43,6245.05C6798.43,6245.05 6777.56,6233.19 6777.56,6233.19C6777.56,6233.19 6777.56,6209.81 6777.56,6209.81L6798.43,6197.95ZM6824.34,6161.66L6829.34,6164.5L6831.47,6153.65L6824.34,6161.66ZM6767.8,6164.34L6772.52,6161.66L6763.98,6152.07L6767.8,6164.34ZM6635.72,6090.27L6637.38,6094.44C6637.38,6094.44 6637.54,6094.54 6637.54,6094.54L6635.72,6090.27ZM6952.68,6076.48L6950.91,6082.33C6950.91,6082.33 6951.11,6082.19 6951.11,6082.19L6952.68,6076.48ZM6776.08,6009.07L6776.52,6009.67C6776.52,6009.67 6776.52,6009.64 6776.52,6009.64L6776.08,6009.07Z" style="fill:white;"/>
            </g>
        </g>
    </g>
</svg>
