<?xml version="1.0" encoding="UTF-8" standalone="no"?>
<!DOCTYPE svg PUBLIC "-//W3C//DTD SVG 1.1//EN" "http://www.w3.org/Graphics/SVG/1.1/DTD/svg11.dtd">
<svg width="100%" height="100%" viewBox="0 0 1990 1286" version="1.1" xmlns="http://www.w3.org/2000/svg" xmlns:xlink="http://www.w3.org/1999/xlink" xml:space="preserve" xmlns:serif="http://www.serif.com/" style="fill-rule:evenodd;clip-rule:evenodd;stroke-linejoin:round;stroke-miterlimit:2;">
    <g transform="matrix(1,0,0,1,-13153,-11295)">
        <g id="Cloudy" transform="matrix(0.937353,0,0,1.12322,1022.72,7562.55)">
            <rect x="12941" y="3323" width="2123" height="1144.32" style="fill:none;"/>
            <g id="Cloudy-day" serif:id="Cloudy day" transform="matrix(2.01037,0,0,1.6777,12800.2,2910.57)">
                <g transform="matrix(0.274647,0,0,0.274647,-2934.13,-498.123)">
                    <path d="M12051.5,4306.52L11818.5,4306.52L11876.7,3981.52L11993.2,3981.52L12051.5,4306.52ZM11635.2,4260.07L11428,4153.52L11628.4,3891.13L11732,3944.41L11635.2,4260.07ZM12469.9,4074.13L12289.9,4222.12L12128.5,3934.1L12218.5,3860.1L12469.9,4074.13ZM11905,3229.24C12102.6,3229.24 12263.1,3389.72 12263.1,3587.39C12263.1,3785.07 12102.6,3945.55 11905,3945.55C11707.3,3945.55 11546.8,3785.07 11546.8,3587.39C11546.8,3389.72 11707.3,3229.24 11905,3229.24ZM11241.6,3945.55L11182.4,3720.22L11511.5,3693.88L11541.1,3806.55L11241.6,3945.55ZM12646.3,3641.04L12601,3869.59L12293.5,3749.23L12316.2,3634.95L12646.3,3641.04ZM11176.7,3480.22L11253.5,3260.24L11541.1,3422.33L11502.7,3532.33L11176.7,3480.22ZM12534,3219.64L12625.9,3433.77L12304.2,3508.36L12258.3,3401.29L12534,3219.64ZM11358.9,3089.58L11542.2,2945.7L11697.1,3237.29L11605.4,3309.24L11358.9,3089.58ZM12224,2923.87L12418.9,3051.61L12192,3291.47L12094.5,3227.6L12224,2923.87ZM11783.4,2847.8L12016.4,2847.8L11958.1,3172.8L11841.6,3172.8L11783.4,2847.8Z" style="fill:rgb(177,215,151);"/>
                    <path d="M12051.5,4306.52L11818.5,4306.52L11876.7,3981.52L11993.2,3981.52L12051.5,4306.52ZM12041,4297.76L11829,4297.76C11829,4297.76 11884.1,3990.28 11884.1,3990.28C11884.1,3990.28 11985.9,3990.28 11985.9,3990.28C11993.5,4032.54 12032.1,4247.93 12041,4297.76L12041,4297.76ZM11635.2,4260.07L11428,4153.52L11628.4,3891.13L11732,3944.41L11635.2,4260.07ZM11629.9,4247.5L11441.3,4150.52C11441.3,4150.52 11630.9,3902.27 11630.9,3902.27C11630.9,3902.27 11721.5,3948.84 11721.5,3948.84C11721.5,3948.84 11629.9,4247.5 11629.9,4247.5L11629.9,4247.5ZM12469.9,4074.13L12289.9,4222.12L12128.5,3934.1L12218.5,3860.1L12469.9,4074.13ZM12456.3,4074.02L12292.5,4208.71C12292.5,4208.71 12139.7,3936.2 12139.7,3936.2C12139.7,3936.2 12218.4,3871.52 12218.4,3871.52C12218.4,3871.52 12456.3,4074.02 12456.3,4074.02L12456.3,4074.02ZM11905,3229.24C12102.6,3229.24 12263.1,3389.72 12263.1,3587.39C12263.1,3785.07 12102.6,3945.55 11905,3945.55C11707.3,3945.55 11546.8,3785.07 11546.8,3587.39C11546.8,3389.72 11707.3,3229.24 11905,3229.24ZM11241.6,3945.55L11182.4,3720.22L11511.5,3693.88L11541.1,3806.55L11241.6,3945.55ZM11905,3237.99C12097.8,3237.99 12254.4,3394.55 12254.4,3587.39C12254.4,3780.23 12097.8,3936.8 11905,3936.8C11712.1,3936.8 11555.6,3780.23 11555.6,3587.39C11555.6,3394.55 11712.1,3237.99 11905,3237.99ZM11247.5,3933.2L11193.5,3728.11C11193.5,3728.11 11504.9,3703.19 11504.9,3703.19C11504.9,3703.19 11530.8,3801.69 11530.8,3801.69C11491.9,3819.77 11293.4,3911.89 11247.5,3933.2L11247.5,3933.2ZM12646.3,3641.04L12601,3869.59L12293.5,3749.23L12316.2,3634.95L12646.3,3641.04ZM12635.7,3649.6L12594.4,3857.62C12594.4,3857.62 12348,3761.14 12303.5,3743.75C12303.5,3743.75 12323.3,3643.84 12323.3,3643.84C12371,3644.72 12635.7,3649.6 12635.7,3649.6L12635.7,3649.6ZM11176.7,3480.22L11253.5,3260.24L11541.1,3422.33L11502.7,3532.33L11176.7,3480.22ZM11188.4,3473.23L11258.3,3273C11258.3,3273 11530.5,3426.37 11530.5,3426.37C11530.5,3426.37 11496.9,3522.52 11496.9,3522.52C11454.5,3515.75 11238.4,3481.22 11188.4,3473.23L11188.4,3473.23ZM12534,3219.64L12625.9,3433.77L12304.2,3508.36L12258.3,3401.29L12534,3219.64ZM12530.1,3232.71L12613.7,3427.61C12564.4,3439.04 12351.2,3488.47 12309.4,3498.17C12309.4,3498.17 12269.3,3404.57 12269.3,3404.57C12269.3,3404.57 12530.1,3232.71 12530.1,3232.71L12530.1,3232.71ZM11358.9,3089.58L11542.2,2945.7L11697.1,3237.29L11605.4,3309.24L11358.9,3089.58ZM11372.6,3090.01L11539.4,2959.04C11539.4,2959.04 11685.9,3234.93 11685.9,3234.93C11685.9,3234.93 11605.8,3297.83 11605.8,3297.83C11605.8,3297.83 11372.6,3090.01 11372.6,3090.01L11372.6,3090.01ZM12224,2923.87L12418.9,3051.61L12192,3291.47L12094.5,3227.6L12224,2923.87ZM12228,2936.93L12405.3,3053.2C12405.3,3053.2 12190.6,3280.14 12190.6,3280.14C12190.6,3280.14 12105.5,3224.3 12105.5,3224.3C12124.2,3180.4 12228,2936.93 12228,2936.93L12228,2936.93ZM11783.4,2847.8L12016.4,2847.8L11958.1,3172.8L11841.6,3172.8L11783.4,2847.8ZM11793.8,2856.55L12005.9,2856.55C12005.9,2856.55 11950.8,3164.04 11950.8,3164.04C11950.8,3164.04 11849,3164.04 11849,3164.04C11849,3164.04 11793.8,2856.55 11793.8,2856.55L11793.8,2856.55Z" style="fill:rgb(248,247,242);"/>
                </g>
                <g transform="matrix(1,0,0,1,-4.46072,-2695.31)">
                    <path d="M543.758,3168.02C586.953,3095.57 666.099,3047 756.5,3047C835.891,3047 906.602,3084.46 951.897,3142.65C954.369,3142.22 956.909,3142 959.5,3142C984.06,3142 1004,3161.94 1004,3186.5C1004,3198.41 999.31,3209.24 991.678,3217.23C996.121,3230.74 999.431,3244.77 1001.5,3259.19C1003.48,3259.07 1005.48,3259 1007.5,3259C1058.55,3259 1100,3300.45 1100,3351.5C1100,3381.68 1085.51,3408.51 1063.12,3425.39C1064.03,3431.46 1064.5,3437.68 1064.5,3444C1064.5,3513.13 1008.38,3569.25 939.25,3569.25C903.297,3569.25 870.862,3554.07 848.016,3529.78C823.691,3565.65 782.579,3589.25 736,3589.25C680.112,3589.25 632.096,3555.28 611.497,3506.89C586.653,3551.1 539.291,3581 485,3581C432.174,3581 385.908,3552.69 360.56,3510.43C336.233,3530.17 305.237,3542 271.5,3542C215.747,3542 167.482,3509.69 144.426,3462.78C122.288,3460.59 105,3442.71 105,3421C105,3403.89 115.735,3389.16 131.122,3382.62C138.474,3324.45 181.178,3277.25 237.004,3263.24C237.001,3263.08 237,3262.91 237,3262.75C237,3245.23 250.667,3231 267.5,3231C276.503,3231 284.599,3235.07 290.183,3241.53C319.548,3182.56 380.45,3142 450.75,3142C484.792,3142 516.63,3151.51 543.758,3168.02Z" style="fill:rgb(109,110,112);"/>
                    <path d="M543.758,3168.02C586.953,3095.57 666.099,3047 756.5,3047C835.891,3047 906.602,3084.46 951.897,3142.65C954.369,3142.22 956.909,3142 959.5,3142C984.06,3142 1004,3161.94 1004,3186.5C1004,3198.41 999.31,3209.24 991.678,3217.23C996.121,3230.74 999.431,3244.77 1001.5,3259.19C1003.48,3259.07 1005.48,3259 1007.5,3259C1058.55,3259 1100,3300.45 1100,3351.5C1100,3381.68 1085.51,3408.51 1063.12,3425.39C1064.03,3431.46 1064.5,3437.68 1064.5,3444C1064.5,3513.13 1008.38,3569.25 939.25,3569.25C903.297,3569.25 870.862,3554.07 848.016,3529.78C823.691,3565.65 782.579,3589.25 736,3589.25C680.112,3589.25 632.096,3555.28 611.497,3506.89C586.653,3551.1 539.291,3581 485,3581C432.174,3581 385.908,3552.69 360.56,3510.43C336.233,3530.17 305.237,3542 271.5,3542C215.747,3542 167.482,3509.69 144.426,3462.78C122.288,3460.59 105,3442.71 105,3421C105,3403.89 115.735,3389.16 131.122,3382.62C138.474,3324.45 181.178,3277.25 237.004,3263.24C237.001,3263.08 237,3262.91 237,3262.75C237,3245.23 250.667,3231 267.5,3231C276.503,3231 284.599,3235.07 290.183,3241.53C319.548,3182.56 380.45,3142 450.75,3142C484.792,3142 516.63,3151.51 543.758,3168.02ZM539.206,3175.5L551.279,3172.51C592.947,3102.62 669.293,3055.76 756.5,3055.76C833.085,3055.76 901.294,3091.9 944.988,3148.03L953.385,3151.28C955.373,3150.93 957.416,3150.76 959.5,3150.76C979.228,3150.76 995.244,3166.77 995.244,3186.5C995.244,3196.07 991.476,3204.76 985.346,3211.18L983.36,3219.96C987.645,3232.99 990.837,3246.52 992.828,3260.43L1002.06,3267.93C1003.86,3267.82 1005.67,3267.76 1007.5,3267.76C1053.72,3267.76 1091.24,3305.28 1091.24,3351.5C1091.24,3378.83 1078.12,3403.11 1057.85,3418.4L1054.46,3426.68C1055.31,3432.33 1055.74,3438.11 1055.74,3444C1055.74,3508.3 1003.55,3560.49 939.25,3560.49C905.81,3560.49 875.643,3546.37 854.394,3523.78L840.769,3524.86C818.017,3558.42 779.567,3580.49 736,3580.49C683.728,3580.49 638.82,3548.72 619.553,3503.46L603.863,3502.6C580.518,3544.14 536.016,3572.24 485,3572.24C435.36,3572.24 391.888,3545.64 368.069,3505.93L355.043,3503.63C332.223,3522.14 303.147,3533.24 271.5,3533.24C219.194,3533.24 173.915,3502.92 152.284,3458.91L145.287,3454.06C127.679,3452.32 113.756,3438.26 113.756,3421C113.756,3407.45 122.364,3395.86 134.55,3390.67L139.808,3383.72C146.705,3329.16 186.767,3284.88 239.135,3271.74L245.759,3263.11C245.757,3262.99 245.756,3262.87 245.756,3262.75C245.756,3250.15 255.4,3239.76 267.5,3239.76C273.879,3239.76 279.6,3242.68 283.557,3247.26L298.022,3245.44C325.953,3189.34 383.88,3150.76 450.75,3150.76C483.126,3150.76 513.406,3159.8 539.206,3175.5Z" style="fill:rgb(248,247,242);"/>
                </g>
            </g>
        </g>
    </g>
</svg>
