<?xml version="1.0" encoding="UTF-8" standalone="no"?>
<!DOCTYPE svg PUBLIC "-//W3C//DTD SVG 1.1//EN" "http://www.w3.org/Graphics/SVG/1.1/DTD/svg11.dtd">
<svg width="100%" height="100%" viewBox="0 0 1737 1693" version="1.1" xmlns="http://www.w3.org/2000/svg" xmlns:xlink="http://www.w3.org/1999/xlink" xml:space="preserve" xmlns:serif="http://www.serif.com/" style="fill-rule:evenodd;clip-rule:evenodd;stroke-linejoin:round;stroke-miterlimit:2;">
    <g transform="matrix(1,0,0,1,-11043,-10750)">
        <g id="Sun" transform="matrix(1.28953,0,0,1.27499,-3643.48,6746.53)">
            <rect x="11389" y="3140" width="1347" height="1327.32" style="fill:none;"/>
            <g transform="matrix(0.775475,0,0,0.784319,2825.43,998.024)">
                <path d="M12051.5,4306.52L11818.5,4306.52L11876.7,3981.52L11993.2,3981.52L12051.5,4306.52ZM11635.2,4260.07L11428,4153.52L11628.4,3891.13L11732,3944.41L11635.2,4260.07ZM12469.9,4074.13L12289.9,4222.12L12128.5,3934.1L12218.5,3860.1L12469.9,4074.13ZM11905,3229.24C12102.6,3229.24 12263.1,3389.72 12263.1,3587.39C12263.1,3785.07 12102.6,3945.55 11905,3945.55C11707.3,3945.55 11546.8,3785.07 11546.8,3587.39C11546.8,3389.72 11707.3,3229.24 11905,3229.24ZM11241.6,3945.55L11182.4,3720.22L11511.5,3693.88L11541.1,3806.55L11241.6,3945.55ZM12646.3,3641.04L12601,3869.59L12293.5,3749.23L12316.2,3634.95L12646.3,3641.04ZM11176.7,3480.22L11253.5,3260.24L11541.1,3422.33L11502.7,3532.33L11176.7,3480.22ZM12534,3219.64L12625.9,3433.77L12304.2,3508.36L12258.3,3401.29L12534,3219.64ZM11358.9,3089.58L11542.2,2945.7L11697.1,3237.29L11605.4,3309.24L11358.9,3089.58ZM12224,2923.87L12418.9,3051.61L12192,3291.47L12094.5,3227.6L12224,2923.87ZM11783.4,2847.8L12016.4,2847.8L11958.1,3172.8L11841.6,3172.8L11783.4,2847.8Z" style="fill:rgb(177,215,151);"/>
                <path d="M12051.5,4306.52L11818.5,4306.52L11876.7,3981.52L11993.2,3981.52L12051.5,4306.52ZM12041,4297.76C12002.3,4297.76 11867.6,4297.76 11829,4297.76C11829,4297.76 11884.1,3990.28 11884.1,3990.28C11884.1,3990.28 11985.9,3990.28 11985.9,3990.28L12041,4297.76ZM11635.2,4260.07L11428,4153.52L11628.4,3891.13L11732,3944.41L11635.2,4260.07ZM11629.9,4247.5C11629.9,4247.5 11480.4,4170.66 11441.3,4150.52C11472,4110.29 11604.8,3936.39 11630.9,3902.27C11630.9,3902.27 11721.5,3948.84 11721.5,3948.84L11629.9,4247.5ZM12469.9,4074.13L12289.9,4222.12L12128.5,3934.1L12218.5,3860.1L12469.9,4074.13ZM12456.3,4074.02C12426.4,4098.59 12322.3,4184.14 12292.5,4208.71C12292.5,4208.71 12139.7,3936.2 12139.7,3936.2C12139.7,3936.2 12218.4,3871.52 12218.4,3871.52L12456.3,4074.02ZM11905,3229.24C12102.6,3229.24 12263.1,3389.72 12263.1,3587.39C12263.1,3785.07 12102.6,3945.55 11905,3945.55C11707.3,3945.55 11546.8,3785.07 11546.8,3587.39C11546.8,3389.72 11707.3,3229.24 11905,3229.24ZM11241.6,3945.55L11182.4,3720.22L11511.5,3693.88L11541.1,3806.55L11241.6,3945.55ZM11905,3237.99C12097.8,3237.99 12254.4,3394.55 12254.4,3587.39C12254.4,3780.23 12097.8,3936.8 11905,3936.8C11712.1,3936.8 11555.6,3780.23 11555.6,3587.39C11555.6,3394.55 11712.1,3237.99 11905,3237.99ZM11247.5,3933.2C11247.5,3933.2 11204.7,3770.7 11193.5,3728.11C11193.5,3728.11 11504.9,3703.19 11504.9,3703.19C11504.9,3703.19 11530.8,3801.69 11530.8,3801.69L11247.5,3933.2ZM12646.3,3641.04L12601,3869.59L12293.5,3749.23L12316.2,3634.95L12646.3,3641.04ZM12635.7,3649.6L12594.4,3857.62C12547.3,3839.16 12343.5,3759.4 12303.5,3743.75C12303.5,3743.75 12323.3,3643.84 12323.3,3643.84L12635.7,3649.6ZM11176.7,3480.22L11253.5,3260.24L11541.1,3422.33L11502.7,3532.33L11176.7,3480.22ZM11188.4,3473.23L11258.3,3273C11258.3,3273 11530.5,3426.37 11530.5,3426.37C11530.5,3426.37 11496.9,3522.52 11496.9,3522.52L11188.4,3473.23ZM12534,3219.64L12625.9,3433.77L12304.2,3508.36L12258.3,3401.29L12534,3219.64ZM12530.1,3232.71C12530.1,3232.71 12596.4,3387.13 12613.7,3427.61C12613.7,3427.61 12309.4,3498.17 12309.4,3498.17C12309.4,3498.17 12269.3,3404.57 12269.3,3404.57L12530.1,3232.71ZM11358.9,3089.58L11542.2,2945.7L11697.1,3237.29L11605.4,3309.24L11358.9,3089.58ZM11372.6,3090.01C11372.6,3090.01 11504.7,2986.24 11539.4,2959.04C11539.4,2959.04 11685.9,3234.93 11685.9,3234.93C11685.9,3234.93 11605.8,3297.83 11605.8,3297.83L11372.6,3090.01ZM12224,2923.87L12418.9,3051.61L12192,3291.47L12094.5,3227.6L12224,2923.87ZM12228,2936.93L12405.3,3053.2C12405.3,3053.2 12223.4,3245.47 12190.6,3280.14C12190.6,3280.14 12105.5,3224.3 12105.5,3224.3L12228,2936.93ZM11783.4,2847.8L12016.4,2847.8L11958.1,3172.8L11841.6,3172.8L11783.4,2847.8ZM11793.8,2856.55L12005.9,2856.55C12005.9,2856.55 11950.8,3164.04 11950.8,3164.04C11950.8,3164.04 11849,3164.04 11849,3164.04L11793.8,2856.55Z" style="fill:rgb(248,247,242);"/>
            </g>
        </g>
    </g>
</svg>
