<svg width="103" height="106" viewBox="0 0 103 106" fill="none" xmlns="http://www.w3.org/2000/svg">
<path d="M66.9121 31.4537C66.9121 40.0707 60.002 47.0383 51.5 47.0383C42.998 47.0383 36.0879 40.0707 36.0879 31.4537C36.0879 22.8367 42.998 15.8691 51.5 15.8691C60.002 15.8691 66.9121 22.8367 66.9121 31.4537Z" fill="white" stroke="white" stroke-width="2"/>
<path d="M100 55.6743C100 81.7467 78.3514 103 51.5 103C24.6486 103 3 81.7467 3 55.6743C3 29.6019 24.6486 8.34863 51.5 8.34863C78.3514 8.34863 100 29.6019 100 55.6743Z" stroke="white" stroke-width="6"/>
<path d="M65.9998 93C65.9998 107.382 37.9998 100.5 33.9998 97C18.934 97 19.4998 93.8825 19.4998 79.5C19.4998 65.1175 32.655 52 47.7208 52C62.7866 52 65.9998 78.6175 65.9998 93Z" fill="white"/>
<path d="M85.0294 79C85.0294 93.3708 80.5579 99.5 65.5 99.5C50.4421 99.5 30.5 93.3708 30.5 79C30.5 64.6292 42.7068 52.5 57.7647 52.5C72.8226 52.5 85.0294 64.6292 85.0294 79Z" fill="white"/>
<path d="M18.6758 90.3574C18.6758 85.131 19.9748 74.0071 20.3833 72.3446C20.954 70.0217 27.0342 54.9233 42.445 52.6289H61.1208C67.3993 52.2418 80.885 58.9596 83.7389 71.7637L86.0219 89.2136" stroke="white" stroke-width="2"/>
</svg>
